<svg width="9" height="16" viewBox="0 0 9 16" fill="none" xmlns="http://www.w3.org/2000/svg">
<path d="M0.596252 6.84603L6.98028 0.473285C7.08513 0.367567 7.20988 0.283656 7.34733 0.226394C7.48477 0.169131 7.6322 0.139648 7.7811 0.139648C7.93 0.139648 8.07742 0.169131 8.21487 0.226394C8.35232 0.283656 8.47707 0.367567 8.58192 0.473285C8.792 0.684615 8.90991 0.970488 8.90991 1.26847C8.90991 1.56645 8.792 1.85232 8.58192 2.06365L2.99872 7.70325L8.58192 13.2864C8.792 13.4978 8.90991 13.7837 8.90991 14.0816C8.90991 14.3796 8.792 14.6655 8.58192 14.8768C8.47746 14.9834 8.35289 15.0682 8.21542 15.1263C8.07796 15.1843 7.93033 15.2146 7.7811 15.2152C7.63187 15.2146 7.48424 15.1843 7.34678 15.1263C7.20931 15.0682 7.08474 14.9834 6.98028 14.8768L0.596252 8.50407C0.481763 8.39845 0.390391 8.27026 0.327897 8.12758C0.265402 7.9849 0.233138 7.83082 0.233138 7.67505C0.233138 7.51928 0.265402 7.3652 0.327897 7.22252C0.390391 7.07984 0.481763 6.95165 0.596252 6.84603Z" fill="#E41F24"/>
</svg>
