<svg width="15" height="16" viewBox="0 0 15 16" fill="none" xmlns="http://www.w3.org/2000/svg">
<path d="M12.7891 8.35598C12.6333 8.35598 12.4704 8.30348 12.3145 8.26598C11.9989 8.19235 11.6888 8.09459 11.3866 7.97348C11.058 7.8469 10.6968 7.85348 10.3725 7.99194C10.0482 8.13039 9.7837 8.39096 9.62993 8.72348L9.4741 9.06098C8.78419 8.65461 8.15021 8.1499 7.58993 7.56098C7.03373 6.96774 6.55706 6.29648 6.17327 5.56598L6.47077 5.35598C6.78482 5.19317 7.0309 4.91313 7.16167 4.56975C7.29244 4.22637 7.29865 3.84391 7.1791 3.49598C7.06663 3.1753 6.97435 2.84708 6.90285 2.51348C6.86743 2.34848 6.8391 2.17598 6.81785 2.00348C6.73183 1.4752 6.4705 0.996787 6.08091 0.65441C5.69133 0.312033 5.19909 0.128187 4.69285 0.13598H2.56785C2.26258 0.132945 1.96028 0.19959 1.68152 0.331378C1.40276 0.463166 1.15409 0.657002 0.952446 0.899692C0.750798 1.14238 0.600903 1.42823 0.512966 1.73777C0.425028 2.04731 0.401114 2.37327 0.442849 2.69348C0.820205 5.83552 2.17545 8.75489 4.29452 10.9905C6.41359 13.226 9.17568 14.6504 12.1445 15.0385H12.4137C12.936 15.0393 13.4403 14.8364 13.8303 14.4685C14.0544 14.2563 14.2335 13.9961 14.3556 13.7052C14.4777 13.4143 14.5401 13.0993 14.5387 12.781V10.531C14.53 10.01 14.3508 9.50839 14.0318 9.11173C13.7127 8.71507 13.2735 8.44795 12.7891 8.35598ZM13.1433 12.856C13.1431 12.9625 13.1216 13.0677 13.0801 13.1647C13.0385 13.2617 12.978 13.3482 12.9024 13.4185C12.8235 13.4912 12.731 13.5455 12.6309 13.5779C12.5308 13.6102 12.4254 13.6197 12.3216 13.606C9.66882 13.2458 7.20477 11.9608 5.31811 9.9537C3.43145 7.94655 2.22956 5.33148 1.90202 2.52098C1.89074 2.41112 1.90062 2.29998 1.93106 2.19427C1.9615 2.08857 2.01186 1.9905 2.0791 1.90598C2.14548 1.82598 2.22718 1.76186 2.31878 1.71789C2.41038 1.67393 2.50978 1.65112 2.61035 1.65098H4.73535C4.90007 1.6471 5.06092 1.70414 5.1902 1.81228C5.31949 1.92043 5.40912 2.07291 5.44368 2.24348C5.47202 2.44848 5.50743 2.65098 5.54993 2.85098C5.63176 3.24634 5.74066 3.63486 5.87577 4.01348L4.8841 4.50098C4.79931 4.54217 4.72304 4.60069 4.65967 4.67318C4.5963 4.74566 4.54707 4.83069 4.51482 4.92338C4.48257 5.01606 4.46793 5.11458 4.47174 5.21327C4.47555 5.31196 4.49773 5.40889 4.53702 5.49848C5.55645 7.81055 7.31173 9.66908 9.49535 10.7485C9.6678 10.8235 9.86123 10.8235 10.0337 10.7485C10.122 10.715 10.2032 10.6633 10.2725 10.5964C10.3418 10.5294 10.3979 10.4486 10.4374 10.3585L10.8766 9.30848C11.2428 9.44714 11.6165 9.56235 11.9958 9.65348C12.1847 9.69848 12.3759 9.73598 12.5695 9.76598C12.7306 9.80257 12.8746 9.89748 12.9768 10.0344C13.0789 10.1713 13.1328 10.3416 13.1291 10.516L13.1433 12.856Z" fill="#E41F24"/>
</svg>
