<svg width="56" height="57" viewBox="0 0 56 57" fill="none" xmlns="http://www.w3.org/2000/svg">
<circle cx="27.6477" cy="28.4688" r="27.6035" fill="#53C1EF"/>
<path d="M42.3026 17.736C42.3028 17.5005 42.2405 17.2692 42.1222 17.0655C42.0038 16.8619 41.8336 16.6933 41.6289 16.5769C41.4242 16.4604 41.1923 16.4003 40.9568 16.4026C40.7213 16.405 40.4906 16.4697 40.2883 16.5902C39.5079 17.0547 38.6676 17.4104 37.7909 17.6475C36.5389 16.5732 34.9421 15.9852 33.2923 15.9913C31.4824 15.9933 29.7441 16.6987 28.4446 17.9584C27.145 19.2181 26.3859 20.9336 26.3274 22.7426C22.7594 22.1736 19.5256 20.3113 17.2427 17.5108C17.1052 17.3439 16.9295 17.2125 16.7305 17.1277C16.5316 17.043 16.3151 17.0073 16.0995 17.0237C15.884 17.0415 15.676 17.1115 15.4936 17.2276C15.3112 17.3438 15.1598 17.5026 15.0526 17.6904C14.5026 18.6502 14.1868 19.7261 14.1307 20.8308C14.0746 21.9356 14.2798 23.038 14.7297 24.0485L14.7271 24.0511C14.5249 24.1756 14.358 24.35 14.2424 24.5574C14.1268 24.7649 14.0664 24.9985 14.0669 25.236C14.0645 25.4319 14.0762 25.6277 14.1021 25.8219C14.2383 27.4996 14.9818 29.07 16.1932 30.2386C16.111 30.3952 16.0609 30.5665 16.0457 30.7427C16.0305 30.9189 16.0505 31.0963 16.1047 31.2646C16.6328 32.9102 17.756 34.2994 19.2544 35.1605C17.7321 35.7491 16.0883 35.9544 14.468 35.7581C14.1681 35.7205 13.8643 35.7859 13.6064 35.9436C13.3486 36.1013 13.152 36.342 13.0489 36.6261C12.9458 36.9103 12.9424 37.221 13.0391 37.5074C13.1358 37.7937 13.327 38.0387 13.5813 38.2021C16.3681 39.997 19.6129 40.9513 22.9277 40.9509C26.6867 40.9931 30.3543 39.7919 33.36 37.5341C36.3657 35.2763 38.5409 32.0884 39.5474 28.4664C40.0181 26.8886 40.2585 25.251 40.261 23.6045C40.261 23.5173 40.261 23.4274 40.2596 23.3376C40.9558 22.5868 41.4951 21.7046 41.8459 20.7428C42.1967 19.7809 42.352 18.7587 42.3026 17.736ZM37.8937 22.0186C37.6735 22.279 37.5621 22.6143 37.5825 22.9548C37.5956 23.1748 37.5943 23.3961 37.5943 23.6045C37.5915 24.9959 37.3876 26.3796 36.9888 27.7126C36.1668 30.7944 34.3343 33.5113 31.7849 35.428C29.2355 37.3448 26.1166 38.3505 22.9277 38.2842C21.7822 38.2845 20.6406 38.1499 19.5266 37.8832C20.9472 37.4254 22.2754 36.7196 23.4498 35.7985C23.6661 35.6282 23.8244 35.3951 23.903 35.1313C23.9815 34.8674 23.9766 34.5857 23.8887 34.3248C23.8008 34.0639 23.6344 33.8366 23.4122 33.6741C23.19 33.5115 22.9229 33.4217 22.6477 33.417C21.5394 33.3998 20.4812 32.953 19.6958 32.1709C19.8951 32.1332 20.093 32.0863 20.2896 32.0303C20.5776 31.9483 20.8296 31.7718 21.0051 31.5291C21.1806 31.2865 21.2693 30.9918 21.257 30.6926C21.2447 30.3934 21.132 30.1071 20.9372 29.8797C20.7423 29.6523 20.4766 29.4971 20.1828 29.4391C19.5395 29.3121 18.9342 29.0384 18.4139 28.6394C17.8936 28.2403 17.4723 27.7267 17.1828 27.1384C17.4238 27.1712 17.6663 27.1917 17.9094 27.1995C18.1981 27.2039 18.4808 27.1163 18.7165 26.9494C18.9522 26.7825 19.1288 26.545 19.2206 26.2712C19.3085 25.9948 19.304 25.6974 19.2077 25.4239C19.1113 25.1504 18.9284 24.9157 18.6867 24.7555C18.1002 24.3648 17.6198 23.8348 17.2885 23.2128C16.9572 22.5909 16.7853 21.8964 16.7883 21.1917C16.7883 21.1032 16.7909 21.0147 16.7961 20.9274C19.7844 23.7144 23.6605 25.3574 27.7414 25.5667C27.9474 25.5749 28.1526 25.5361 28.3414 25.4533C28.5302 25.3705 28.6977 25.2459 28.8313 25.0889C28.9635 24.9304 29.0572 24.7433 29.1048 24.5424C29.1525 24.3416 29.1529 24.1324 29.1059 23.9313C29.0297 23.6132 28.9908 23.2872 28.9901 22.96C28.9913 21.8194 29.4449 20.7258 30.2515 19.9193C31.058 19.1127 32.1516 18.6591 33.2922 18.6579C33.879 18.6563 34.4598 18.7764 34.9979 19.0106C35.536 19.2448 36.0197 19.588 36.4185 20.0186C36.5723 20.184 36.7658 20.3074 36.9807 20.3769C37.1956 20.4464 37.4248 20.4598 37.6463 20.4158C38.194 20.3092 38.7339 20.1656 39.2622 19.9861C38.9018 20.7234 38.4413 21.4073 37.8937 22.0186Z" fill="white"/>
</svg>
