<svg width="406" height="219" viewBox="0 0 406 219" fill="none" xmlns="http://www.w3.org/2000/svg">
<path d="M379.474 53.9972C379.531 54.1764 379.115 54.113 378.641 53.8705C378.167 53.6279 377.583 52.4318 377.467 52.0736C377.351 51.7153 377.004 50.6405 376.761 51.1145C376.339 51.6464 376.68 53.3165 376.854 53.8539C376.969 54.2122 376.72 55.2814 377.201 54.9287L377.559 54.813C377.738 54.7551 378.097 54.6393 378.155 54.8185C378.213 54.9976 378.271 55.1768 378.149 55.4138C377.547 56.0035 377.125 56.5354 376.466 56.946C375.806 57.3566 375.089 57.5881 374.378 57.2243L373.904 56.9818C373.129 57.0341 372.828 57.329 373.065 57.4503C373.36 57.7507 373.95 58.3515 373.47 58.7042C372.81 59.1149 371.544 60.7105 371.243 61.0054C370.763 61.3581 370.219 62.127 370.462 61.653C370.884 61.1211 369.762 60.0987 369.282 60.4514C368.802 60.8042 367.24 62.0994 367.119 62.3364C367.055 62.7525 368.119 63.5959 367.46 64.0065C366.801 64.4171 365.442 63.2734 365.199 63.7474L365.257 63.9265C365.372 64.2848 365.904 64.7065 365.725 64.7643C365.424 65.0592 364.886 65.2328 364.585 65.5277L364.285 65.8226C364.042 66.2966 363.562 66.6493 363.382 66.7072L363.203 66.7651L362.729 66.5226C362.428 66.8174 362.006 67.3493 361.763 67.8233C361.52 68.2973 360.38 69.0607 360.149 68.3442L359.316 68.2174C359.137 68.2752 358.958 68.3331 358.778 68.391C358.778 68.391 358.836 68.5701 358.894 68.7493C359.01 69.1075 358.882 69.9398 358.761 70.1768C358.102 70.5874 357.801 70.8823 357.853 71.6567L357.373 72.0095C356.187 71.4032 356.118 72.4146 355.458 72.8252L355.157 73.1201C354.62 73.2937 354.325 72.9933 354.568 72.5193C354.81 72.0453 354.284 71.0283 354.4 71.3866C354.516 71.7448 355.649 71.5768 355.771 71.3398C355.892 71.1027 355.383 68.3 355.088 67.9996L355.204 68.3579C355.32 68.7161 355.673 69.1957 355.967 69.4961L356.199 70.2126C357.153 70.1024 357.575 69.5705 357.402 69.0331L357.165 68.9118L356.453 68.548C356.401 67.7736 356.407 67.1783 356.17 67.0571C355.933 66.9358 355.73 69.3748 355.482 70.4441L355.129 69.9646C355.013 69.6063 354.776 69.485 354.66 69.1267C354.545 68.7685 353.469 69.1157 354.013 68.3468C354.313 68.0519 353.724 67.4511 354.499 67.3988C354.678 67.3409 354.684 66.7456 354.805 66.5086C355.106 66.2137 355.048 66.0346 354.632 65.9712C354.395 65.8499 354.036 65.9657 353.799 65.8444C353.799 65.8444 353.678 66.0814 353.556 66.3184C353.435 66.5555 353.608 67.0929 353.608 67.0929C352.532 67.4401 353.064 67.8618 353.238 68.3992L353.411 68.9366C353.585 69.474 353.463 69.711 353.226 69.5897C352.989 69.4684 351.983 68.8042 351.682 69.0991C351.381 69.394 350.6 70.0416 350.184 69.9782C349.767 69.9148 348.94 69.1928 348.697 69.6668C348.576 69.9038 349.929 71.6428 349.513 71.5794C349.154 71.6951 348.501 71.5105 348.2 71.8054C347.841 71.9211 347.066 71.9734 346.765 72.2683L346.644 72.5053L346.401 72.9793C346.337 73.3955 345.678 73.8061 345.14 73.9797L344.602 74.1533L344.423 74.2112C344.301 74.4482 344.417 74.8065 344.833 74.8699L345.071 74.9911C345.308 75.1124 345.007 75.4073 344.469 75.5809L343.873 75.5754C343.457 75.512 343.098 75.6277 342.74 75.7435L342.023 75.9749C342.67 76.7549 342.965 77.0553 342.728 76.934C342.67 76.7549 341.768 77.6395 341.409 77.7553L340.993 77.6919L340.756 77.5706C340.397 77.6863 339.917 78.0391 339.796 78.2761C339.495 78.571 339.367 79.4033 339.367 79.4033C339.425 79.5824 339.419 80.1777 339.72 79.8828C340.021 79.5879 340.443 79.056 340.623 78.9982L340.68 79.1773C340.738 79.3564 340.912 79.8938 341.149 80.0151C341.264 80.3734 343 79.6155 343.121 79.3785C343.422 79.0836 344.44 78.5573 344.914 78.7998C345.33 78.8632 346.464 78.6951 345.932 78.2735L345.637 77.973C345.4 77.8518 344.984 77.7884 344.689 77.488C344.157 77.0663 344.157 77.0663 344.035 77.3033L343.671 78.0144C343.127 78.7832 342.288 79.2517 341.814 79.0092L341.756 78.8301L341.704 78.0557C342.543 77.5872 343.561 77.0608 344.157 77.0663L344.637 76.7136C345.655 76.1872 346.378 75.3605 347.158 74.7128C347.28 74.4758 347.164 74.1175 347.228 73.7014C347.17 73.5223 347.471 73.2274 347.471 73.2274C347.65 73.1695 347.887 73.2908 348.067 73.2329L348.778 73.5967C349.079 73.3018 349.322 72.8278 349.443 72.5908L349.623 72.533L351.537 71.7172C352.023 70.7692 352.387 70.0582 352.682 70.3586C352.977 70.659 353.509 71.0807 353.029 71.4334C352.312 71.6649 351.82 73.2082 351.583 73.0869C351.404 73.1448 350.924 73.4975 351.097 74.035L351.629 74.4566L351.866 74.5779C352.104 74.6991 352.462 74.5834 352.584 74.3464L352.705 74.1094L352.769 73.6933C352.832 73.2771 353.55 73.0456 354.145 73.0512C354.799 73.2358 354.666 74.6634 354.249 74.6L353.891 74.7157C353.532 74.8315 353.11 75.3633 352.751 75.4791C352.393 75.5948 351.976 75.5314 351.618 75.6472L351.259 75.7629C350.9 75.8787 350.721 75.9365 350.663 75.7574C350.605 75.5783 350.311 75.2779 349.952 75.3936C349.536 75.3302 349.605 74.3188 349.368 74.1975L348.951 74.1341C348.951 74.1341 348.471 74.4869 348.529 74.666C348.466 75.0821 348.223 75.5562 347.505 75.7877L346.609 76.077C346.302 76.9672 346.597 77.2676 347.314 77.0361C348.032 76.8046 350.062 76.3472 349.877 77.0003L349.992 77.3586L350.108 77.7168C350.102 78.3121 350.16 78.4912 349.923 78.37L349.686 78.2487C349.448 78.1275 349.09 78.2432 348.673 78.1798C348.494 78.2377 348.078 78.1743 348.136 78.3534C347.707 79.4806 346.695 79.4117 345.62 79.7589L345.261 79.8746C344.723 80.0482 344.422 80.3431 344.48 80.5222C344.717 80.6435 344.711 81.2388 344.295 81.1754L343.936 81.2911C343.578 81.4069 343.335 81.8809 342.976 81.9966L342.259 82.2281C342.432 82.7655 342.132 83.0604 341.895 82.9391C341.478 82.8757 340.588 82.5698 340.588 82.5698L340.53 82.3907L340.657 81.5584C341.554 81.269 341.912 81.1533 341.675 81.032C341.438 80.9108 340.183 81.3159 339.703 81.6686L339.28 82.2005L338.858 82.7324C338.436 83.2643 338.251 83.9174 338.488 84.0387C338.725 84.16 339.263 83.9863 339.679 84.0497C340.038 83.934 340.628 84.5348 340.269 84.6505C339.911 84.7663 338.465 86.4198 337.927 86.5934C337.626 86.8883 336.799 86.1662 337.279 85.8135C337.759 85.4607 336.938 84.1434 336.759 84.2012C336.579 84.2591 336.695 84.6174 337.586 84.9233L336.088 85.8024L335.07 86.3288C335.717 87.1087 335.949 87.8253 335.59 87.941L335.353 87.8197C334.936 87.7563 334.699 87.6351 334.873 88.1725C335.046 88.7099 334.688 88.8256 334.271 88.7622L334.092 88.8201C333.976 88.4618 334.341 87.7508 334.641 87.4559L334.705 87.0398L334.769 86.6237C334.775 86.0284 334.595 86.0862 334.41 86.7394L333.693 86.9709C333.334 87.0866 333.265 88.098 332.964 88.3929C331.946 88.9193 333.138 88.9303 333.016 89.1673C333.004 90.3579 332.524 90.7106 330.911 91.2315L330.552 91.3472C330.014 91.5208 329.777 91.3996 329.841 90.9834L329.783 90.8043L329.667 90.446C329.193 90.2035 328.777 90.1401 328.892 90.4983C328.95 90.6775 328.643 91.5676 328.106 91.7413L327.568 91.9149C327.388 91.9727 327.088 92.2676 327.145 92.4468C327.203 92.6259 327.498 92.9263 327.498 92.9263C328.036 92.7527 328.452 92.8161 328.389 93.2322C328.447 93.4114 327.729 93.6428 327.787 93.822C327.66 94.6543 327.001 95.0649 326.341 95.4755L325.381 96.181C324.242 96.9444 322.923 97.7656 322.385 97.9392C321.905 98.2919 321.06 99.3557 320.881 99.4136C320.702 99.4715 319.684 99.9978 319.204 100.351L318.724 100.703C318.244 101.056 318.238 101.651 317.521 101.883C316.208 102.109 315.959 103.178 315.236 104.005C315.114 104.242 314.814 104.537 314.634 104.595C313.744 104.289 314.096 104.768 313.796 105.063C312.772 106.185 311.332 107.243 310.128 108.422C309.648 108.775 309.18 107.937 308.636 108.706C308.393 109.18 307.913 109.533 307.375 109.707C306.837 109.88 306.953 110.239 306.832 110.476C306.768 110.892 306.583 111.545 305.634 111.06C305.397 110.939 304.501 111.228 303.899 111.818L303.656 112.292C302.997 112.702 302.337 113.113 302.037 113.408C301.736 113.703 301.551 114.356 301.377 113.818C301.082 113.518 299.879 114.697 299.341 114.871C298.861 115.224 298.907 116.594 298.85 116.414C298.612 116.293 296.877 117.051 295.373 118.525L293.933 119.584C293.754 119.641 293.395 119.757 293.216 119.815C292.736 120.168 293.864 120.595 293.025 121.064L292.545 121.416C291.949 121.411 291.174 121.463 290.873 121.758C290.515 121.874 289.069 123.527 288.109 124.233L287.27 124.701L287.091 124.759C286.616 124.517 286.2 124.453 286.021 124.511C285.899 124.748 285.541 124.864 285.425 124.506L285.489 124.089L285.552 123.673C286.032 123.32 286.513 122.968 286.871 122.852C287.23 122.736 288.126 122.447 288.068 122.268C288.011 122.089 287.299 121.725 286.698 122.315L286.16 122.488C285.443 122.72 284.905 122.893 285.136 123.61C285.188 124.384 283.881 124.015 283.875 124.61C283.933 124.789 283.811 125.026 283.991 124.968L284.401 125.627C285.298 125.338 285.535 125.459 285.234 125.754C284.933 126.049 284.384 127.413 283.724 127.824L282.891 127.697L282.712 127.755C282.533 127.813 282.232 128.107 282.111 128.344C281.989 128.581 281.746 129.055 281.752 128.46C281.816 128.044 281.77 126.674 280.989 127.322C280.208 127.97 277.877 128.722 278.114 128.843C278.351 128.964 278.288 129.381 277.807 129.733C277.327 130.086 277.136 131.335 277.437 131.04L277.559 130.803C278.102 130.034 278.999 129.744 279.832 129.871C280.011 129.813 280.485 130.056 280.485 130.056C280.659 130.593 280.242 130.53 279.647 130.524C279.467 130.582 279.051 130.519 279.051 130.519C278.802 131.588 276.893 131.809 277.061 132.941C277.061 132.941 276.581 133.294 276.28 133.589C275.979 133.884 274.719 134.884 274.476 135.358L273.585 135.052L273.348 134.931C272.804 135.7 272.445 135.816 272.688 135.342C272.931 134.868 273.423 133.324 272.648 133.377L272.052 133.371L271.04 133.302C270.913 134.134 270.606 135.025 270.068 135.198C269.531 135.372 267.923 135.297 267.865 135.118C267.628 134.997 267.634 134.402 268.229 134.407L268.588 134.291L268.767 134.234C269.068 133.939 268.952 133.58 268.715 133.459L268.478 133.338C268.183 133.037 268.062 133.275 267.761 133.569C267.281 133.922 266.743 134.096 266.269 133.853L265.795 133.611C265.141 133.426 264.545 133.42 264.719 133.958C264.834 134.316 266.141 134.685 266.916 134.633L266.968 135.408C267.564 135.413 268.038 135.656 267.975 136.072L268.57 136.077L269.345 136.025C270.358 136.094 270.832 136.336 270.23 136.926C269.808 137.458 268.31 138.337 268.194 137.979C268.079 137.621 267.61 136.783 267.252 136.899C266.893 137.014 267.182 137.91 266.881 138.205C266.581 138.5 265.563 139.026 265.505 138.847C265.626 138.61 265.574 137.835 265.395 137.893C265.395 137.893 265.036 138.009 264.915 138.246C264.793 138.483 263.897 138.772 263.243 138.588L262.59 138.403C262.289 138.698 262.052 138.577 261.815 138.455L261.757 138.276L261.289 137.439C260.809 137.791 260.803 138.387 261.156 138.866C261.45 139.167 262.272 140.484 262.15 140.721C261.849 141.016 260.415 141.479 260.056 141.594C259.698 141.71 258.269 141.578 257.674 141.572L257.373 141.867C257.072 142.162 256.713 142.278 256.413 142.573C256.233 142.631 256.17 143.047 256.17 143.047C256.407 143.168 256.644 143.289 257.002 143.174C257.361 143.058 257.72 142.942 257.783 142.526C257.853 141.514 258.437 142.711 258.68 142.237L259.102 141.705C259.467 140.994 259.293 140.456 258.64 140.272L257.986 140.087C257.807 140.145 257.685 140.382 257.922 140.503C257.98 140.682 258.622 142.057 258.616 142.653C258.61 143.248 258.124 144.196 257.887 144.075C257.65 143.953 257.054 143.948 256.875 144.006C256.754 144.243 256.69 144.659 257.049 144.543L257.228 144.485L257.824 144.491C257.76 144.907 257.517 145.381 257.216 145.676C256.915 145.971 256.129 147.214 256.418 148.109L256.175 148.583L255.452 149.41C254.324 148.983 253.312 148.914 253.19 149.151C253.069 149.388 252.589 149.741 252.473 149.383C252.178 149.082 251.16 149.608 251.039 149.845C250.917 150.082 250.432 151.031 250.784 151.51L251.86 151.163C251.854 151.758 251.553 152.053 251.021 151.631L250.547 151.389C250.073 151.146 249.894 151.204 249.651 151.678C249.529 151.915 249.408 152.152 249.286 152.389C248.985 152.684 247.667 153.505 247.366 153.8C247.065 154.095 247.302 154.216 247.719 154.28L248.372 154.464C248.187 155.117 247.944 155.592 247.823 155.829C247.701 156.066 246.44 157.066 245.717 157.893L244.699 158.419L243.502 159.003C242.6 159.888 241.576 161.01 241.096 161.362C240.616 161.715 239.123 161.999 239.066 161.82C239.008 161.641 239.314 160.75 240.032 160.519L240.691 160.108L241.35 159.698C241.293 159.519 241.414 159.282 241.593 159.224C241.773 159.166 242.253 158.813 242.195 158.634C242.137 158.455 241.964 157.917 241.726 157.796C241.547 157.854 240.651 158.143 239.934 158.375C239.216 158.606 238.366 160.265 237.712 160.081L238.181 160.919L238.591 161.577C238.054 161.751 237.695 161.867 237.753 162.046C237.753 162.046 238.522 162.589 239.054 163.01L238.516 163.184L237.62 163.473C237.076 164.242 236.353 165.069 236.11 165.543C235.867 166.017 233.889 167.249 233.166 168.076L232.57 168.07L231.795 168.122C231.315 168.475 230.713 169.065 230.592 169.302L230.65 169.481C230.765 169.839 230.881 170.198 230.106 170.25L229.389 170.481C228.787 171.071 228.122 172.077 227.879 172.551L227.405 172.308L226.931 172.066C226.809 172.303 226.566 172.777 226.323 173.251C226.022 173.546 224.524 174.425 223.986 174.599L223.981 175.194C223.917 175.61 223.553 176.321 222.604 175.836C222.367 175.715 221.65 175.946 222.002 176.426C222.176 176.963 222.292 177.321 221.395 177.611L221.037 177.726C220.794 178.201 220.256 178.374 219.839 178.311C219.365 178.068 218.237 177.641 218.058 177.699L218.116 177.878L218.174 178.057C218.231 178.236 217.815 178.173 217.462 177.693L217.283 177.751L216.207 178.098C216.438 178.815 216.554 179.173 216.195 179.289C215.958 179.168 215.004 179.278 214.825 179.336C214.703 179.573 214.749 180.943 214.558 182.191L213.714 183.255C212.991 184.081 212.146 185.145 210.949 185.729L210.591 185.845C210.053 186.019 209.156 186.308 208.676 186.661C208.196 187.014 207.051 188.372 206.634 188.309C206.218 188.246 206.883 187.24 207.184 186.945C207.427 186.471 206.901 185.454 206.721 185.512C206.542 185.57 205.883 185.98 206.12 186.101C206.357 186.223 206.53 186.76 206.351 186.818L206.172 186.876L205.038 187.044C203.968 186.796 203.257 186.432 203.378 186.195L203.5 185.958L203.621 185.721C203.743 185.484 203.268 185.242 202.91 185.357L202.788 185.594C202.545 186.068 202.187 186.184 201.533 185.999C201.059 185.757 200.701 185.873 200.695 186.468C200.631 186.884 201.047 186.947 201.585 186.774L201.944 186.658C202.36 186.721 202.835 186.964 203.129 187.264C203.187 187.444 203.835 188.223 204.014 188.166C204.194 188.108 205.026 188.234 205.084 188.414C205.142 188.593 204.182 189.298 202.69 189.582L201.984 188.623C201.689 188.323 201.753 187.906 201.695 187.727C201.637 187.548 201.279 187.664 201.099 187.722C200.92 187.78 200.799 188.017 200.856 188.196C200.914 188.375 200.972 188.554 201.03 188.733L200.966 189.149C200.903 189.566 200.66 190.04 200.596 190.456C200.474 190.693 199.572 191.577 199.156 191.514C198.739 191.451 197.062 192.388 196.646 192.324C196.229 192.261 194.858 192.308 194.858 192.308C194.679 192.365 193.239 193.424 192.701 193.597L192.227 193.355L191.99 193.233L191.573 193.17C190.978 193.165 190.798 193.222 190.92 192.985C190.746 192.448 190.272 192.205 190.099 191.668C190.047 190.894 189.214 190.767 188.74 190.524L186.889 190.924C186.652 190.803 186.056 190.797 185.639 190.734C185.281 190.849 184.755 189.833 184.998 189.359L184.286 188.995L183.575 188.631C182.8 188.683 181.909 188.377 181.672 188.256L181.493 188.314C180.955 188.488 180.539 188.424 180.365 187.887C180.307 187.708 180.371 187.291 180.55 187.234C181.088 187.06 181.568 186.707 181.8 187.424C181.979 187.366 182.158 187.308 182.158 187.308C182.28 187.071 182.106 186.534 181.69 186.47L181.273 186.407L180.082 186.396C180.504 185.864 180.747 185.39 180.388 185.506C180.03 185.621 179.307 186.448 178.833 186.206C178.595 186.084 178.723 185.252 179.139 185.315L179.319 185.258L179.677 185.142C179.92 184.668 179.683 184.547 179.267 184.483C178.85 184.42 177.78 184.172 178.44 183.761L178.503 183.345C178.746 182.871 178.393 182.391 177.74 182.207C177.74 182.207 177.566 181.669 177.746 181.611L179.718 180.975C178.949 180.432 178.18 179.889 178.122 179.71L177.943 179.768C177.705 179.647 177.526 179.704 177.526 179.704C177.532 179.109 177.596 178.693 177.781 178.04C177.966 177.387 178.562 177.392 179.1 177.219C179.1 177.219 178.805 176.918 178.388 176.855C177.972 176.791 176.653 177.613 176.769 177.971C176.827 178.15 176.821 178.745 176.346 178.503C175.872 178.26 175.705 177.128 175.525 177.185C175.346 177.243 174.507 177.712 174.687 177.654C174.924 177.775 174.386 177.949 173.489 178.238L173.079 177.58C172.726 177.1 172.373 176.62 172.021 176.141C171.431 175.54 170.482 175.055 171.801 174.234L171.743 174.055C171.685 173.876 169.499 172.01 169.384 171.651L169.089 171.351C168.794 171.051 168.32 170.808 168.198 171.045L167.839 171.161C167.359 171.514 167.417 171.693 167.712 171.993L168.603 172.299C168.123 172.652 167.348 172.704 167.111 172.583L166.816 172.283C166.521 171.982 166.162 172.098 165.682 172.451C165.381 172.745 164.901 173.098 164.485 173.035C163.53 173.145 163.345 173.798 162.923 174.33C162.68 174.804 162.322 174.92 161.662 175.33L161.483 175.388C161.361 175.625 161.124 175.504 160.772 175.025C160.419 174.545 159.042 175.187 159.516 175.43L159.811 175.73L160.106 176.03C160.28 176.568 160.1 176.626 159.869 175.909L158.915 176.019L158.319 176.014C157.666 175.829 156.891 175.882 156.59 176.176L156.468 176.413C156.283 177.067 156.277 177.662 155.259 178.188C154.542 178.42 154.12 178.952 153.287 178.825L153.05 178.704C152.691 178.819 152.333 178.935 152.275 178.756C152.217 178.577 151.801 178.513 151.436 179.224L151.089 178.15C150.974 177.791 151.037 177.375 150.5 177.549C150.141 177.664 149.84 177.959 149.777 178.376L149.713 178.792C149.886 179.329 149.701 179.982 149.522 180.04L149.163 180.156C148.805 180.272 148.382 180.803 148.261 181.04C148.319 181.22 147.96 181.335 147.781 181.393L147.422 181.509C147.006 181.446 146.832 180.908 147.018 180.255L147.081 179.839L147.203 179.602C146.665 179.775 146.306 179.891 146.127 179.949L145.768 180.065L145.589 180.123C144.866 180.949 144.207 181.36 144.091 181.002C144.033 180.823 145.352 180.001 145.352 180.001L145.294 179.822L145.236 179.643C144.999 179.522 144.282 179.753 143.507 179.806L143.142 180.517L142.599 181.286C143.611 181.355 145.103 181.071 146 180.781L145.757 181.255C145.635 181.492 145.809 182.03 146.104 182.33C146.578 182.573 147.411 182.699 146.688 183.526C146.688 183.526 146.803 183.885 146.982 183.827C147.399 183.89 148.058 183.479 148.11 184.254C148.047 184.67 146.728 185.491 145.953 185.544L145.774 185.601C145.357 185.538 144.999 185.654 145.056 185.833C145.114 186.012 144.57 186.781 143.738 186.654L144.224 185.706C144.466 185.232 143.454 185.163 143.454 185.163C142.853 185.753 141.661 185.742 141.592 186.753C141.586 187.349 140.811 187.401 140.452 187.517C139.857 187.511 140.157 187.216 140.042 186.858L140.048 186.263C139.695 185.783 139.759 185.367 140.175 185.43C140.591 185.494 142.02 185.626 142.02 185.626C142.02 185.626 141.725 185.326 141.251 185.083L140.956 184.783L140.661 184.482C140.308 184.003 139.834 183.76 139.533 184.055C139.232 184.35 138.631 184.94 138.573 184.761C138.515 184.582 138.099 184.518 137.919 184.576C137.798 184.813 137.734 185.229 137.971 185.351C138.209 185.472 138.023 186.125 137.185 186.593L138.729 187.084L138.966 187.205C138.96 187.801 138.839 188.038 138.544 187.737C138.249 187.437 136.884 186.888 136.34 187.657C135.739 188.247 133.165 189.473 133.038 190.306L132.494 191.074L131.829 192.08C132.418 192.681 132.713 192.982 132.534 193.039C132.355 193.097 131.4 193.207 131.285 192.849L131.464 192.791L132.066 192.202C131.713 191.722 130.695 192.248 130.088 193.433L130.435 194.508L130.666 195.225C131.204 195.051 131.62 195.115 131.499 195.352C131.377 195.589 130.897 195.941 130.423 195.699L130.128 195.398C129.891 195.277 129.654 195.156 129.538 194.798L129.191 193.723C128.653 193.896 128.295 194.012 128.173 194.249C127.994 194.307 127.514 194.66 127.277 194.539L127.04 194.417C126.565 194.175 126.386 194.233 126.571 193.579L126.814 193.105C126.103 192.742 125.744 192.857 125.86 193.216C125.975 193.574 124.836 194.337 124.714 194.574L124.772 194.753L124.83 194.933C125.067 195.054 125.721 195.238 126.195 195.481C126.669 195.724 126.357 197.209 125.877 197.562L125.466 196.903L125.408 196.724C124.992 196.661 124.691 196.955 124.57 197.192L124.627 197.372C125.038 198.03 124.674 198.741 124.199 198.499L123.367 198.372C122.707 198.783 121.926 199.43 121.92 200.025L121.735 200.679L121.614 200.916C121.492 201.153 121.134 201.268 120.897 201.147C120.66 201.026 119.942 201.257 119.937 201.853L119.335 202.442C119.393 202.621 119.034 202.737 118.855 202.795C118.676 202.853 118.438 202.732 118.438 202.732C118.45 201.541 117.374 201.888 116.542 201.762L116.304 201.64C115.888 201.577 115.587 201.872 115.882 202.172L115.94 202.351L115.998 202.53C116.056 202.71 115.934 202.947 115.576 203.062L115.396 203.12C115.217 203.178 114.922 202.878 114.743 202.936L113.673 202.687C113.725 203.462 113.719 204.057 114.077 203.941C114.257 203.884 115.153 203.594 115.39 203.715C115.628 203.837 116.397 204.38 116.333 204.796C116.269 205.212 114.835 205.675 114.65 206.328L114.465 206.981L114.523 207.16C114.164 207.276 113.927 207.155 114.048 206.918L113.99 206.739C113.696 206.438 113.042 206.254 112.926 205.895L112.579 204.821C111.741 205.289 111.139 205.879 110.96 205.937C110.96 205.937 110.723 205.815 110.486 205.694L110.665 205.636L110.786 205.399C111.145 205.284 111.209 204.867 111.33 204.63C111.272 204.451 111.695 203.919 112.412 203.688L112.597 203.035C112.718 202.798 112.718 202.798 112.065 202.613C111.764 202.908 111.585 202.966 111.585 202.966C111.533 202.191 111.001 201.77 110.226 201.822L109.214 201.753C109.04 201.216 108.693 200.141 108.699 199.546L109.121 199.014C109.544 198.482 109.966 197.95 110.209 197.476C109.972 197.355 109.434 197.528 109.133 197.823L108.902 197.107C108.902 197.107 108.485 197.043 108.306 197.101C108.127 197.159 108.005 197.396 108.063 197.575L108.179 197.933C108.294 198.292 108.231 198.708 108.051 198.766C107.872 198.824 107.271 199.413 107.386 199.772C107.502 200.13 108.803 201.094 108.977 201.632L108.67 202.522C108.427 202.996 108.774 204.071 110.087 203.845L110.266 203.787C110.561 204.087 109.844 204.319 108.947 204.608L108.057 204.302C107.877 204.36 107.762 204.002 107.762 204.002C108.19 202.875 107.536 202.69 106.582 202.8L106.403 202.858C106.166 202.737 106.05 202.379 106.114 201.963C106.652 201.789 107.253 201.199 106.958 200.899L106.247 200.535C105.715 200.113 105.183 199.692 105.061 199.929C104.882 199.987 104.159 200.813 104.517 200.698C104.876 200.582 105.709 200.709 105.709 200.709L105.53 200.766L104.691 201.235C103.679 201.166 103.089 200.565 103.569 200.212C103.991 199.681 103.766 198.369 103.644 198.606C103.523 198.843 102.864 199.253 102.806 199.074C102.748 198.895 102.216 198.473 102.037 198.531C101.857 198.589 101.198 199 101.082 198.642C100.967 198.283 100.197 197.74 99.6595 197.914L99.2431 197.851L99.006 197.729C98.8904 197.371 98.5954 197.071 98.5376 196.892C98.2368 197.186 98.2888 197.961 97.456 197.834C97.2767 197.892 97.2189 197.713 97.1611 197.534C97.1669 196.938 98.1329 195.638 98.37 195.759C99.3185 196.244 99.6829 195.533 100.163 195.18C100.342 195.122 100.579 195.244 100.759 195.186L100.938 195.128C101.117 195.07 101.777 194.659 102.077 194.364L102.199 194.127C102.621 193.596 102.39 192.879 102.754 192.168L103.177 191.636C103.541 190.925 103.483 190.746 103.125 190.862L102.766 190.977L102.407 191.093C101.87 191.267 101.447 191.799 101.384 192.215C101.32 192.631 100.059 193.631 99.2262 193.505L97.491 194.262C97.3117 194.32 97.1325 194.378 96.9532 194.436L96.8317 194.673C96.7102 194.91 96.5309 194.968 96.2938 194.847L96.0567 194.725L95.8196 194.604C95.4031 194.541 95.2817 194.778 95.218 195.194L95.2758 195.373L95.3336 195.552C95.5707 195.673 95.6286 195.852 95.4493 195.91C95.27 195.968 94.7321 196.142 94.495 196.021C94.1364 196.136 93.1821 196.247 92.7598 196.778L92.2219 196.952L91.684 197.126C91.0305 196.941 90.4348 196.935 90.5504 197.294C90.6082 197.473 90.3594 198.542 89.6422 198.774L89.7001 198.953L89.6247 200.559C88.4969 200.132 87.7278 199.589 88.0286 199.294C88.2715 198.82 88.9945 197.994 88.5781 197.93L88.341 197.809C87.809 197.387 87.809 197.387 87.3867 197.919C87.1437 198.393 86.6637 198.746 86.2414 199.278L85.8192 199.81C85.3969 200.342 85.3332 200.758 85.6918 200.642C86.2297 200.468 87.479 200.659 87.7102 201.375L86.3337 202.017C86.1544 202.075 85.9751 202.133 85.9751 202.133C86.1427 203.266 85.0091 203.434 84.1704 203.902C83.511 204.313 82.3774 204.481 82.1345 204.955C81.5849 206.319 80.0927 206.603 79.4853 207.788C79.2423 208.262 78.9416 208.557 78.288 208.372C78.288 208.372 77.6287 208.783 77.565 209.199C77.5013 209.615 77.4955 210.21 76.7205 210.263L76.3619 210.379C75.824 210.552 75.3439 210.905 74.9853 211.021L74.8638 211.258L74.858 211.853C74.6729 212.506 74.1928 212.859 73.7186 212.616C73.4236 212.316 72.5966 211.594 72.7181 211.357C72.8396 211.12 72.8396 211.12 72.2439 211.114C71.706 211.288 70.5665 212.051 71.2201 212.236L71.6943 212.478L72.1685 212.721C72.6428 212.964 72.4576 213.617 71.7983 214.027C71.1967 214.617 68.9873 215.132 68.8139 214.595L68.5767 214.474C68.1603 214.41 67.5646 214.405 67.0267 214.578C66.8474 214.636 66.6681 214.694 66.5466 214.931C66.4252 215.168 66.3037 215.405 66.1244 215.463C65.4072 215.694 64.8115 215.689 64.0943 215.92C63.5564 216.094 63.8455 216.99 62.8334 216.921L62.3475 217.869L61.5205 217.147C60.6818 217.615 59.8431 218.084 59.5423 218.379C59.2416 218.674 58.1658 219.021 58.2294 218.605C58.2353 218.009 58.9005 217.003 58.4263 216.761L57.8942 216.339C57.7149 216.397 57.4778 216.276 57.4778 216.276C56.8704 217.461 55.6907 216.259 55.1469 217.028L55.0255 217.265C54.9618 217.681 54.5395 218.213 53.9438 218.208C53.4059 218.381 52.0989 218.012 52.1625 217.596C52.2262 217.18 51.7636 215.747 51.5265 215.625L51.0523 215.383L50.4624 214.782C49.6238 215.25 48.4265 215.835 47.8249 216.424L47.8769 217.199C47.8711 217.794 46.9804 217.488 46.9804 217.488L45.9566 218.61C44.8288 218.183 43.7011 217.755 43.5854 217.397C43.2905 217.097 43.0014 216.201 43.1229 215.964L43.3022 215.906C43.4815 215.848 43.5971 216.207 43.655 216.386L43.7647 217.339C44.4241 216.929 45.0893 215.923 45.0374 215.148L43.9674 214.9C42.4232 214.41 42.4869 213.994 43.158 212.392L43.2794 212.155C43.3431 211.739 43.106 211.618 42.8052 211.913L42.6837 212.15C42.383 212.445 42.2556 213.277 41.7294 212.26C41.7294 212.26 41.3708 212.376 41.1337 212.255L40.9544 212.313C40.8966 212.133 41.1974 211.838 41.7353 211.665L41.3825 211.185C41.0298 210.706 40.6075 211.238 40.0118 211.232L39.8325 211.29C39.6532 211.348 39.1211 210.926 38.7106 210.268L38.1207 209.667C38.0629 209.488 37.6465 209.424 37.4672 209.482L36.6922 209.534C35.9172 209.587 35.2636 209.402 35.5066 208.928C35.6281 208.691 36.6519 207.569 36.5362 207.211C36.2991 207.09 35.7092 206.489 35.8885 206.431C35.8885 206.431 36.8429 206.321 37.56 206.09L37.6062 207.459L37.5425 207.875C37.716 208.413 38.1902 208.655 38.7281 208.482C39.0867 208.366 40.2261 207.603 40.2898 207.186L40.4691 207.129C41.3078 206.66 41.0128 206.36 40.3593 206.175L39.648 205.811C39.4745 205.274 38.4046 205.026 37.5659 205.494L36.7909 205.547C36.253 205.72 35.4202 205.593 35.9061 204.645C36.0276 204.408 35.617 203.75 35.2006 203.686L34.6627 203.86C33.4076 204.265 33.049 204.381 33.8818 204.508L34.2982 204.571C34.7725 204.814 34.8881 205.172 34.1709 205.403L33.9916 205.461C33.8701 205.698 33.928 205.877 34.2866 205.762C34.6451 205.646 35.478 205.773 35.5358 205.952C35.5936 206.131 35.4085 206.784 34.8128 206.779C34.4542 206.894 33.1471 206.525 33.2686 206.288C33.3322 205.872 32.326 205.208 31.7939 204.786L31.6205 204.249L31.2794 202.578C30.2036 202.926 29.3708 202.799 29.4344 202.383C29.4981 201.967 28.0754 201.239 27.9019 200.702L26.6469 201.107C25.9297 201.338 25.8777 200.564 26.1206 200.09L26.4909 198.783C25.8316 199.194 25.6523 199.252 26.4273 199.2C26.9652 199.026 28.6367 198.684 28.6425 198.089L29.5968 197.979C30.5511 197.869 29.9612 197.268 29.9034 197.089C29.73 196.551 29.1921 196.725 28.9491 197.199L28.5847 197.91C28.1105 197.667 26.9827 197.24 26.387 197.235L25.7854 197.824C25.6639 198.061 24.2932 198.108 24.2354 197.929C24.1776 197.75 24.1776 197.75 24.1198 197.571C24.1198 197.571 24.4205 197.276 24.4784 197.455L25.4268 197.94C25.612 197.287 25.4385 196.75 25.0221 196.686C24.4264 196.681 23.1135 196.907 23.5241 197.565C23.9346 198.224 24.5765 199.599 23.9808 199.594C23.5643 199.53 22.4307 199.698 22.0143 199.635C21.5979 199.572 20.7592 200.04 20.5221 199.919L20.4643 199.74L20.528 199.323C20.7709 198.849 20.2967 198.607 19.1631 198.775L18.8565 199.665C18.6077 200.734 17.5377 200.486 16.8205 200.718L16.6412 200.776C16.2826 200.892 16.4678 200.238 17.0693 199.649L17.4916 199.117L17.9138 198.585C17.4396 198.342 17.5033 197.926 17.9833 197.573C18.5212 197.4 19.9498 197.532 20.2506 197.237C20.5513 196.942 19.7244 196.22 19.1865 196.394C18.6486 196.568 17.6943 196.678 17.7579 196.262L17.7001 196.082C17.463 195.961 17.463 195.961 17.5845 195.724C17.7638 195.666 18.0645 195.371 17.8274 195.25C17.8274 195.25 17.7118 194.892 18.1919 194.539C17.7235 193.701 18.9207 193.117 19.2852 192.406C19.4067 192.169 19.1117 191.869 19.0539 191.69L18.6433 191.031C18.7648 190.794 19.2449 190.441 19.4878 189.967C19.7308 189.493 18.794 187.818 19.1526 187.702C19.3319 187.644 20.055 186.817 19.9393 186.459C19.7659 185.921 18.8232 184.841 19.1818 184.725C19.5404 184.61 20.1998 184.199 19.9627 184.078C19.5463 184.014 19.072 183.772 18.9506 184.009C18.5283 184.541 18.106 185.073 17.6838 185.604L17.5623 185.841C17.383 185.899 16.4807 186.784 15.5783 187.669L15.2717 188.559L15.3295 188.738C15.1502 188.796 14.3811 188.253 13.6756 187.294L13.3865 186.398C13.3287 186.219 13.0337 185.919 12.8544 185.976L12.0216 185.85C12.0274 185.254 12.2704 184.78 12.4497 184.722C12.629 184.665 13.404 184.612 13.2884 184.254C13.1727 183.896 12.9415 183.179 12.5829 183.295C12.2243 183.411 11.4493 183.463 11.3336 183.105L11.2758 182.926L10.9867 182.03C11.5883 181.44 11.7734 180.787 11.6578 180.429L11.2414 180.365L10.0558 179.759C10.9523 179.47 11.2472 179.77 10.7671 180.123C10.2871 180.476 8.86436 179.748 9.17098 178.858L10.1889 178.331C10.3682 178.274 10.137 177.557 9.84204 177.257C9.30999 176.835 8.65646 176.65 7.82363 176.524L6.93298 176.218C7.0603 175.385 6.88685 174.848 6.29114 174.842C5.69542 174.837 5.26148 176.559 4.96071 176.854C4.83923 177.091 4.76972 178.103 4.53261 177.981C4.35331 178.039 3.99471 178.155 3.75175 178.629L3.45097 178.924C3.1502 179.219 2.61231 179.392 2.31153 179.687C1.76779 180.456 1.35722 179.797 1.1201 179.676C0.82517 179.376 1.36891 178.607 1.7275 178.491C2.0861 178.375 2.79745 178.739 2.98259 178.086C3.22555 177.612 2.93061 177.312 2.39856 176.89L1.62939 176.347C2.17313 175.578 2.6532 175.225 2.89032 175.347L3.06962 175.289C3.24892 175.231 4.10512 172.977 4.0473 172.797C3.98948 172.618 3.63673 172.139 3.39961 172.018L2.74608 171.833C2.75192 171.238 2.81558 170.821 2.81558 170.821C2.8734 171.001 3.46911 171.006 3.59059 170.769C3.89137 170.474 4.37729 169.526 4.14017 169.405C3.90305 169.284 3.37685 168.267 2.96043 168.203C2.54402 168.14 2.17374 169.446 1.81514 169.562C1.51436 169.857 0.438577 170.204 0.444419 169.609L0.328783 169.251C-0.0817881 168.592 0.693223 168.54 0.994 168.245C1.29478 167.95 1.83267 167.776 2.13345 167.481L2.43422 167.186C2.67718 166.712 2.61936 166.533 2.20295 166.47C1.78654 166.406 0.895889 166.101 0.479475 166.037C0.24236 165.916 0.306021 165.5 0.959551 165.684C1.61308 165.869 3.76466 165.175 3.64902 164.816L3.71268 164.4C3.84 163.568 3.23845 164.158 3.05915 164.216L2.82203 164.094C2.76422 163.915 3.30211 163.742 4.07712 163.689C4.85213 163.637 5.99158 162.873 5.27438 163.105L5.70248 161.978C6.0091 161.088 5.41923 160.487 4.22781 160.476L4.04851 160.534C3.8114 160.412 4.05436 159.938 4.35513 159.644C4.83521 159.291 4.84689 158.1 5.20549 157.984C5.56408 157.869 6.28712 157.042 6.05585 156.325L4.92224 156.493C4.56364 156.609 4.21089 156.13 3.91596 155.829L3.85814 155.65C3.97962 155.413 4.46554 154.465 5.00927 153.696L6.13703 154.123C6.13703 154.123 6.67493 153.95 6.79641 153.713C7.03937 153.239 7.22451 152.586 7.46746 152.112L7.71042 151.638C8.12684 151.701 8.84403 151.47 9.32411 151.117L8.5491 151.169C8.07486 150.927 8.25416 150.869 8.97135 150.637C9.92566 150.527 10.2323 149.637 10.8917 149.226C11.3717 148.874 11.3139 148.694 11.1983 148.336L11.21 147.146C12.2221 147.214 12.7022 146.862 12.5287 146.324L12.6502 146.087C13.1939 145.318 13.7955 144.729 14.3392 143.96L14.5185 143.902C14.9349 143.965 15.0564 143.728 14.8193 143.607L14.7615 143.428L14.7037 143.249C14.6458 143.07 14.7673 142.833 15.0044 142.954L15.1837 142.896C15.363 142.838 15.6638 142.543 15.7853 142.306C16.329 141.537 16.8728 140.768 17.2372 140.057L17.4802 139.583C18.018 139.41 18.4345 139.473 18.4923 139.652C18.5501 139.831 18.9087 139.716 19.0938 139.063C19.0997 138.467 19.8864 137.224 20.1813 137.525C20.2391 137.704 20.7712 138.126 20.9505 138.068C21.1298 138.01 22.7376 138.084 23.3333 138.09L23.4548 137.853C23.6399 137.2 23.0442 137.194 22.6278 137.131C21.9743 136.946 21.9106 137.362 21.6098 137.657C21.1876 138.189 21.604 138.252 22.0782 138.495L22.4946 138.558C22.4368 138.379 22.1419 138.079 21.847 137.778C21.552 137.478 21.3786 136.941 21.9165 136.767L22.2172 136.472C22.6973 136.119 23.536 135.651 22.709 134.929C22.177 134.507 22.605 133.38 23.5015 133.091C24.0394 132.917 24.3402 132.622 24.1668 132.085C24.1089 131.906 24.5312 131.374 24.8898 131.258L26.3242 130.795C27.88 130.095 29.1351 129.69 28.8343 129.985C28.4757 130.101 28.3484 130.933 28.8805 131.355L29.4242 130.586C29.5457 130.349 29.9043 130.233 29.9043 130.233C30.6156 130.597 30.5 130.238 30.743 129.764L30.8066 129.348C31.6453 128.88 31.8304 128.227 31.2984 127.805L30.5753 128.632L29.8523 129.458C28.7824 129.21 28.1925 128.61 28.6726 128.257C29.0948 127.725 30.3038 125.95 31.2003 125.661L31.6284 124.534L32.3053 122.337C34.694 121.764 36.4869 121.185 36.4291 121.006C36.3713 120.827 36.6779 119.937 37.2736 119.942C37.8115 119.769 38.1818 118.463 38.4189 118.584C38.5982 118.526 39.3154 118.294 39.2576 118.115C39.1998 117.936 39.09 116.983 39.4486 116.867L39.6279 116.809C40.5822 116.699 41.2416 116.288 41.3111 115.277C41.2649 113.907 41.5657 113.612 43.3009 112.854C43.4802 112.796 43.8388 112.681 44.0181 112.623C44.0181 112.623 43.5438 112.38 43.0696 112.138L43.7868 111.906C44.504 111.675 44.8047 111.38 44.8106 110.785L44.9957 110.132C45.5914 110.137 46.3665 110.085 46.5458 110.027L46.7251 109.969C47.2688 109.2 47.211 109.021 48.5875 108.379C49.7848 107.795 50.5078 106.968 51.2309 106.141C51.9539 105.314 52.7926 104.846 53.0414 103.777C53.2265 103.123 53.4753 102.054 54.8402 102.603C55.2625 102.071 55.5054 101.597 55.2683 101.475C55.2105 101.296 55.2163 100.701 55.9913 100.649L56.1128 100.412C56.4773 99.7006 57.1944 99.4691 57.7902 99.4746L58.7445 99.3644C59.5831 98.8959 60.4218 98.4275 60.5433 98.1904L60.7226 98.1326C61.4398 97.9011 59.6585 97.2892 60.9714 97.0633L61.3936 96.5314C61.9894 96.5369 62.5272 96.3633 62.4694 96.1842C62.4116 96.005 62.8339 95.4732 63.4296 95.4787L63.7882 95.3629C64.2682 95.0102 64.5112 94.5362 64.812 94.2413C65.1128 93.9464 65.1764 93.5303 65.535 93.4145C65.7143 93.3567 66.1307 93.4201 66.4315 93.1252L67.0909 92.7146C66.8596 91.998 67.3397 91.6453 68.4096 91.8933L68.5889 91.8355C69.2483 91.4248 70.1448 91.1355 70.6249 90.7827C71.1686 90.0139 71.4752 89.1237 72.4295 89.0135C72.4295 89.0135 72.551 88.7765 72.4932 88.5973C71.967 87.5804 72.8635 87.291 73.517 87.4757L75.0612 87.9663C74.6506 87.3076 74.535 86.9493 74.535 86.9493L74.5928 87.1285C74.8877 87.4289 75.4834 87.4344 75.5471 87.0183C75.5588 85.8277 76.2123 86.0124 77.0451 86.1391L79.9081 85.8085C80.0295 85.5715 80.151 85.3345 80.2725 85.0975L80.9436 83.4963C82.135 83.5073 83.2108 83.1601 83.0951 82.8018L83.2166 82.5648L83.2803 82.1487C83.8182 81.9751 84.4775 81.5645 84.599 81.3275L84.7205 81.0905L84.7842 80.6743C84.79 80.079 86.5193 79.9165 88.3643 80.1122L90.2787 79.2965C90.6373 79.1807 90.8225 78.5276 91.1232 78.2327C91.424 77.9378 91.8463 77.4059 92.3783 77.8276L92.9104 78.2493C93.4424 78.6709 94.2116 79.2139 94.5643 79.6934L94.3792 80.3465C94.6163 80.4678 95.0964 80.1151 95.2815 79.4619C95.4667 78.8088 95.7213 77.1442 95.9584 77.2655C96.1956 77.3867 97.0862 77.6927 97.144 77.8718C97.2018 78.0509 97.8495 78.8309 98.5031 79.0155L98.9831 78.6628C99.2839 78.3679 100.18 78.0785 99.9491 77.362C99.8335 77.0037 101.146 76.7778 101.858 77.1416C102.274 77.205 102.691 77.2684 103.107 77.3317C103.581 77.5743 104.107 78.5912 103.986 78.8282C103.448 79.0018 103.321 79.8341 102.552 79.2912L102.193 79.4069C101.834 79.5227 101.296 79.6963 101.591 79.9967C101.649 80.1758 102.066 80.2392 102.424 80.1235L102.604 80.0656C102.962 79.9499 103.488 80.9668 103.893 82.2208L102.927 83.5215L102.748 83.5794C102.863 83.9377 103.459 83.9432 103.76 83.6483L103.702 83.4692C103.65 82.6948 104.009 82.579 104.72 82.9428L105.374 83.1275C106.027 83.3121 106.38 83.7917 106.079 84.0866L107.022 85.1669C108.277 84.7618 109.295 84.2354 109.416 83.9984L109.711 84.2988C110.243 84.7205 110.596 85.2 110.943 86.2748L111.001 86.454C111.116 86.8123 111.353 86.9335 111.475 86.6965C111.596 86.4595 111.839 85.9855 111.897 86.1646C112.134 86.2859 113.384 86.4761 113.441 86.6552C113.499 86.8343 113.135 87.5454 112.776 87.6611C112.418 87.7768 111.579 88.2453 111.695 88.6036C111.81 88.9619 112.516 89.9209 113.054 89.7473C113.412 89.6316 114.494 88.6891 114.436 88.51C114.378 88.3308 114.563 87.6777 114.922 87.5619C115.28 87.4462 116.414 87.2781 116.293 87.5151C116.171 87.7521 115.627 88.521 115.865 88.6423C116.102 88.7635 117.229 89.1907 117.883 89.3754L117.576 90.2655C117.333 90.7395 117.033 91.0344 117.385 91.514C117.443 91.6931 117.142 91.988 117.021 92.225L116.899 92.462C116.778 92.699 117.073 92.9994 117.252 92.9415L117.431 92.8837L117.611 92.8258C117.969 92.71 118.206 92.8313 118.143 93.2474L118.021 93.4845L117.958 93.9006C117.715 94.3746 117.356 94.4904 117.298 94.3112C117.24 94.1321 116.766 93.8895 116.76 94.4848C116.812 95.2592 119.785 95.8821 120.259 96.1247L120.074 96.7778L119.953 97.0148C120.843 97.3207 121.312 98.1585 121.005 99.0487L120.404 99.6385L120.103 99.9333C120.161 100.112 120.398 100.234 120.519 99.9967L120.699 99.9389C121.057 99.8231 121.531 100.066 121.89 99.9499C122.249 99.8342 122.491 99.3601 122.85 99.2444C123.388 99.0708 124.169 98.4232 124.759 99.024C125.586 99.746 127.136 99.6413 127.303 100.774C127.361 100.953 127.118 101.427 126.939 101.485L125.747 101.474C125.799 102.248 125.788 103.439 125.84 104.213L126.973 104.045C127.21 104.167 126.91 104.461 126.551 104.577L126.314 104.456C125.898 104.393 125.481 104.329 125.238 104.803C125.117 105.04 124.995 105.277 124.816 105.335C124.457 105.451 123.682 105.503 123.561 105.74C123.26 106.035 123.613 106.515 123.549 106.931L122.82 108.353C123.289 109.191 123.341 109.965 122.623 110.196L122.323 110.491C121.721 111.081 121.895 111.618 122.964 111.866L123.618 112.051C124.272 112.236 124.63 112.12 124.572 111.941C124.335 111.82 123.982 111.34 123.925 111.161C124.046 110.924 124.769 110.097 125.423 110.282C126.018 110.287 127.377 111.431 127.019 111.547C126.66 111.663 125.885 111.715 126.18 112.015C126.597 112.079 126.955 111.963 127.192 112.084C127.609 112.148 127.782 112.685 127.424 112.801L126.706 113.032C127.181 113.275 127.418 113.396 127.296 113.633C127.117 113.691 126.932 114.344 127.111 114.286C127.348 114.408 127.88 114.829 127.342 115.003L126.747 114.997C126.209 115.171 126.029 115.229 126.203 115.766C126.261 115.945 125.96 116.24 125.781 116.298C125.127 116.113 124.41 116.345 124.404 116.94C124.398 117.535 125.173 117.483 125.648 117.726C125.648 117.726 125.167 118.078 124.63 118.252L123.976 118.067L123.56 118.004C122.9 118.415 123.131 119.131 124.08 119.616L123.056 120.738C123.056 120.738 123.409 121.217 123.646 121.339L124.12 121.581C124.716 121.587 125.433 121.355 125.734 121.06L125.676 120.881L125.381 120.581C124.907 120.338 124.554 119.859 124.913 119.743C125.271 119.627 126.347 119.28 126.648 118.985C126.949 118.69 127.834 119.591 128.192 119.476C128.551 119.36 129.69 118.597 129.875 117.943L130.06 117.29C130.552 115.747 132.166 115.226 133.427 114.226C133.728 113.931 134.323 113.936 134.445 113.699C134.925 113.347 135.289 112.636 135.949 112.225L136.429 111.872C137.204 111.82 137.921 111.588 137.684 111.467C137.568 111.109 137.158 110.45 137.158 110.45L137.337 110.392C137.817 110.04 138.592 109.987 138.893 109.692L139.679 108.449C141.114 107.987 142.548 107.524 142.728 107.466C142.907 107.408 143.566 106.997 143.451 106.639C143.393 106.46 144.174 105.812 144.411 105.933C144.648 106.055 145.718 106.303 145.781 105.887C145.666 105.528 146.395 104.106 147.534 103.343L148.668 103.175C149.564 102.885 150.102 102.712 150.588 101.764L150.71 101.527C151.247 101.353 152.317 101.601 152.849 102.023L151.947 102.908L151.646 103.202C151.288 103.318 150.628 103.729 150.449 103.787C150.328 104.024 149.31 104.55 149.252 104.371C149.015 104.25 148.176 104.718 147.453 105.545L146.967 106.493C146.302 107.499 145.637 108.505 144.202 108.968C144.26 109.147 143.601 109.557 142.941 109.968C142.224 110.2 140.899 111.616 140.836 112.032C140.772 112.448 141.726 112.338 142.45 111.511L143.23 110.864L143.352 110.627C143.948 110.632 144.306 110.517 144.248 110.337C144.191 110.158 144.85 109.748 145.625 109.695L146.105 109.343L147.187 108.4C148.031 107.336 149.113 106.394 149.292 106.336C149.471 106.278 150.125 106.463 150.298 107L150.472 107.537L150.645 108.075C150.402 108.549 150.217 109.202 150.096 109.439C150.211 109.797 149.905 110.687 149.488 110.624C149.13 110.74 148.291 111.208 148.118 110.671C147.823 110.371 146.625 110.955 146.741 111.313C146.857 111.671 146.851 112.267 146.492 112.382L146.486 112.978C146.538 113.752 145.416 112.73 145.411 113.325L145.225 113.978C144.745 114.331 144.56 114.984 144.855 115.284L145.034 115.226C145.272 115.348 145.809 115.174 145.931 114.937C146.295 114.226 146.955 113.815 148.031 113.468L148.568 113.295C148.273 112.994 148.279 112.399 148.638 112.283C148.997 112.167 149.002 111.572 149.182 111.514C149.419 111.636 149.893 111.878 150.13 111.999C150.367 112.121 151.206 111.652 152.23 110.53L151.466 109.392L151.409 109.213C151.351 109.034 151.53 108.976 151.709 108.918C151.889 108.86 152.247 108.745 152.305 108.924L152.421 109.282C152.658 109.403 152.837 109.345 153.016 109.288C153.196 109.23 153.317 108.993 153.259 108.814L152.733 107.797C153.161 106.669 153.942 106.022 154.237 106.322L154.653 106.386L155.249 106.391C155.723 106.634 156.082 106.518 156.088 105.923L156.389 105.628C156.632 105.154 157.349 104.922 157.887 104.749L159.142 104.344C159.448 103.453 159.101 102.379 158.39 102.015L157.968 102.547C157.546 103.079 157.308 102.957 156.834 102.715C156.597 102.594 156.001 102.588 155.88 102.825C155.579 103.12 155.516 103.536 155.157 103.652C154.798 103.767 154.324 103.525 153.965 103.641C153.786 103.699 153.485 103.993 153.185 104.288L152.583 104.878C152.814 105.595 152.571 106.069 152.097 105.826C151.623 105.584 150.252 105.63 150.553 105.336L150.912 105.22C151.449 105.046 152.167 104.815 152.288 104.578L152.3 103.387C153.376 103.04 154.394 102.514 154.515 102.277C154.637 102.04 155.354 101.808 155.649 102.108L155.828 102.051C156.603 101.998 156.25 101.519 156.314 101.103C156.621 100.212 156.985 99.5014 158.061 99.1541L158.419 99.0384C158.778 98.9227 158.668 97.9691 158.02 97.1892L156.817 98.3687C156.696 98.6057 156.337 98.7214 156.395 98.9006C156.21 99.5537 155.614 99.5482 155.14 99.3057C154.064 99.6529 153.11 99.7631 153.052 99.584C152.994 99.4048 153.417 98.8729 154.192 98.8206L154.492 98.5257C154.972 98.173 155.158 97.5198 155.343 96.8667C155.586 96.3927 155.944 96.2769 156.181 96.3982L156.592 97.0569C156.893 96.762 157.968 96.4148 158.801 96.5415L159.391 97.1423C160.276 98.0435 160.993 97.8121 161.658 96.8062L161.959 96.5113C162.26 96.2164 163.214 96.1062 164.226 96.1751L165.244 95.6488C165.962 95.4173 166.32 95.3015 166.551 96.0181C166.551 96.0181 166.968 96.0815 167.147 96.0236C167.147 96.0236 167.269 95.7866 167.211 95.6075L167.101 94.6539C166.204 94.9433 165.429 94.9956 165.25 95.0535C165.071 95.1114 164.539 94.6897 165.019 94.3369L165.32 94.0421C165.979 93.6314 164.909 93.3834 165.088 93.3255C165.748 92.9149 165.574 92.3775 165.933 92.2618C166.592 91.8511 167.309 91.6197 167.905 91.6252C168.501 91.6307 168.68 91.5728 168.744 91.1567L168.692 90.3823C169.351 89.9717 170.606 89.5666 171.74 89.3985L172.388 90.1784C172.445 90.3575 172.862 90.4209 173.041 90.3631C173.515 90.6056 173.816 90.3107 174.117 90.0158C174.418 89.721 174.181 89.5997 174.065 89.2414L173.597 88.4036C172.822 88.456 172.29 88.0343 172.532 87.5603C172.775 87.0863 174.574 85.9123 174.817 85.4383L175.708 85.7442C175.945 85.8655 176.547 85.2757 176.905 85.16L177.385 84.8072C177.807 84.2753 177.929 84.0383 177.871 83.8592C177.871 83.8592 177.339 83.4375 177.756 83.5009C178.114 83.3852 178.889 83.3328 178.831 83.1537C178.773 82.9746 179.433 82.5639 179.849 82.6273C180.266 82.6907 181.636 82.6439 181.636 82.6439C181.636 82.6439 181.579 82.4648 181.341 82.3435C181.104 82.2222 180.931 81.6848 181.885 81.5746L182.359 81.8172L182.776 81.8805C182.949 82.418 182.949 82.418 182.597 81.9384C182.244 81.4589 182.377 80.0313 182.793 80.0947L182.973 80.0368C183.389 80.1002 183.863 80.3428 183.985 80.1058C184.286 79.8109 184.048 79.6896 183.754 79.3892C183.401 78.9097 183.765 78.1987 184.482 77.9672L185.379 77.6778C185.084 77.3774 185.148 76.9613 185.564 77.0247C185.98 77.0881 187.427 75.4346 187.901 75.6771L188.317 75.7405C188.496 75.6826 188.855 75.5669 188.855 75.5669C188.977 75.3299 188.919 75.1507 188.682 75.0295L188.387 74.7291C187.912 74.4865 187.675 74.3653 187.976 74.0704L188.155 74.0125L188.693 73.8389C189.168 74.0814 189.885 73.8499 190.365 73.4972L190.428 73.0811L190.313 72.7228C190.434 72.4858 190.793 72.37 191.03 72.4913C191.267 72.6126 191.805 72.439 191.516 71.5433L192.829 71.3173C192.829 71.3173 193.13 71.0224 193.072 70.8433L193.199 70.011C193.795 70.0165 194.448 70.2012 194.327 70.4382C194.385 70.6173 194.795 71.276 195.512 71.0445L195.993 70.6918C196.293 70.3969 196.953 69.9863 196.062 69.6804C196.126 69.2642 196.484 69.1485 196.843 69.0327L196.901 69.2119C197.074 69.7493 197.427 70.2288 196.825 70.8186L196.525 71.1135C196.282 71.5875 196.218 72.0036 196.577 71.8879C196.935 71.7721 197.589 71.9568 197.288 72.2517C196.987 72.5465 196.501 73.4946 197.513 73.5635L197.814 73.2686C198.294 72.9159 198.716 72.384 199.428 72.7478C199.428 72.7478 199.966 72.5742 199.908 72.395L199.619 71.4993C200.573 71.3891 201.29 71.1576 201.053 71.0364C200.816 70.9151 200.758 70.736 200.7 70.5568L200.88 70.499C202.256 69.8569 203.02 70.9951 204.153 70.827C204.153 70.827 204.327 71.3644 204.147 71.4223L203.667 71.775C203.187 72.1278 203.066 72.3648 203.482 72.4282C203.841 72.3124 204.488 73.0924 203.771 73.3238C203.233 73.4974 202.568 74.5033 203.164 74.5089C203.76 74.5144 205.564 72.7451 206.281 72.5136L206.935 72.6983C207.588 72.883 207.652 72.4668 208.011 72.3511C208.549 72.1775 208.907 72.0617 208.543 72.7727C208.421 73.0098 208.716 73.3102 208.716 73.3102C209.075 73.1944 209.671 73.1999 209.792 72.9629C210.035 72.4889 209.682 72.0094 210.694 72.0783C211.527 72.2051 211.105 72.737 211.163 72.9161L211.221 73.0952C211.458 73.2165 211.515 73.3956 211.157 73.5114C210.798 73.6271 209.96 74.0956 210.017 74.2748C210.434 74.3381 210.972 74.1645 211.388 74.2279L211.747 74.1122C212.285 73.9386 212.406 73.7016 212.169 73.5803C211.932 73.459 212.239 72.5689 212.123 72.2106L211.828 71.9102C210.879 71.4252 212.308 71.5575 212.192 71.1992C212.135 71.0201 212.256 70.783 212.077 70.8409C211.308 70.298 211.429 70.061 212.268 69.5925L212.447 69.5346C212.568 69.2976 213.106 69.124 213.401 69.4244C213.818 69.4878 214.946 69.915 215.003 70.0941C215.061 70.2733 215.292 70.9898 215.171 71.2268C215.049 71.4638 214.743 72.354 214.98 72.4752C215.217 72.5965 216.171 72.4863 216.293 72.2493C216.414 72.0123 216.958 71.2434 217.554 71.2489C217.97 71.3123 218.462 69.769 218.526 69.3528C218.589 68.9367 219.127 68.7631 220.076 69.2481L220.683 68.0631L220.862 68.0052C221.464 67.4155 222.47 68.0797 222.713 67.6057C222.84 66.7734 223.558 66.5419 223.801 66.0679C223.986 65.4147 224.049 64.9986 224.94 65.3045C225.119 65.2467 225.362 64.7727 225.663 64.4778L226.143 64.125L226.982 63.6565C227.763 63.0089 228.544 62.3613 228.902 62.2455C229.261 62.1298 228.972 61.2341 228.972 61.2341C228.914 61.055 229.452 60.8814 230.105 61.066L230.285 61.0082C231.065 60.3605 232.378 60.1346 232.448 59.1232C232.511 58.707 232.87 58.5913 233.229 58.4755C234.067 58.007 234.848 57.3594 235.571 56.5327C235.693 56.2956 236.051 56.1799 236.051 56.1799C237.237 56.7862 237.364 55.954 237.908 55.1851C238.209 54.8902 238.272 54.474 238.631 54.3583L239.707 54.0111C239.655 53.2367 240.199 52.4678 240.916 52.2363C241.633 52.0048 243.368 51.247 243.31 51.0678L243.252 50.8887C243.252 50.8887 243.073 50.9466 242.894 51.0044L242.356 51.1781C241.697 51.5887 241.645 50.8143 242.252 49.6292L243.918 49.8828C244.571 50.0675 243.981 49.4667 243.923 49.2875L243.871 48.5131C244.768 48.2238 245.427 47.8131 245.312 47.4549C245.196 47.0966 244.907 46.2009 245.086 46.143C245.086 46.143 245.503 46.2064 245.618 46.5647C245.734 46.923 246.382 47.7029 246.561 47.645C246.74 47.5872 247.4 47.1766 247.163 47.0553C247.105 46.8762 246.931 46.3388 247.111 46.2809C247.29 46.223 247.77 45.8703 247.712 45.6911C247.654 45.512 247.776 45.275 248.134 45.1592C248.366 45.8758 248.961 45.8813 249.326 45.1703L249.632 44.2801C250.292 43.8695 251.489 43.2853 252.148 42.8747L252.808 42.464L253.646 41.9956C254.37 41.1688 254.792 40.6369 254.375 40.5735L254.138 40.4523L253.843 40.1519C253.548 39.8515 253.849 39.5566 254.086 39.6778C254.56 39.9204 255.868 40.2897 255.989 40.0527C256.11 39.8157 257.134 38.694 257.857 37.8673L259.292 37.4043L260.547 36.9992C260.732 36.3461 261.513 35.6984 262.109 35.704L262.409 35.4091C263.248 34.9406 263.734 33.9926 264.81 33.6454C264.752 33.4662 265.053 33.1713 265.174 32.9343C265.353 32.8765 266.071 32.645 266.013 32.4658C265.955 32.2867 266.319 31.5757 266.915 31.5812L267.511 31.5867L268.107 31.5923C268.882 31.5399 269.541 31.1293 269.842 30.8344C270.085 30.3604 271.172 28.8226 271.953 28.175L272.728 28.1227C273.144 28.1861 273.682 28.0124 274.041 27.8967C274.342 27.6018 274.168 27.0644 274.469 26.7695C274.77 26.4747 275.423 26.6593 275.961 26.4857C276.32 26.37 276.742 25.8381 277.101 25.7223L277.581 25.3696C278.298 25.1381 279.194 24.8488 279.553 24.733C279.912 24.6173 280.519 23.4322 280.698 23.3744C280.878 23.3165 281.716 22.848 281.901 22.1949L281.369 21.7732L281.312 21.5941C281.734 21.0622 282.393 20.6516 282.867 20.8941L283.105 21.0153C283.105 21.0153 282.682 21.5472 283.278 21.5528L283.874 21.5583C284.469 21.5638 284.949 21.2111 284.834 20.8528C284.718 20.4945 284.371 19.4197 284.73 19.304C285.088 19.1882 285.806 18.9567 285.146 19.3673L285.32 19.9048C285.378 20.0839 286.025 20.8638 286.262 20.9851L286.8 20.8115C286.685 20.4532 286.991 19.5631 287.176 18.9099L288.246 19.158C288.483 19.2792 289.264 18.6316 289.687 18.0997C290.288 17.51 290.653 16.799 291.312 16.3883C291.971 15.9777 291.676 15.6773 291.74 15.2612C291.682 15.082 291.804 14.845 291.983 14.7871C292.162 14.7293 292.521 14.6135 292.579 14.7927C292.816 14.9139 292.931 15.2722 293.169 15.3935C293.406 15.5147 293.406 15.5147 293.828 14.9829L294.071 14.5089C294.73 14.0982 295.268 13.9246 295.505 14.0459C295.563 14.225 296.818 13.8199 297.836 13.2936L297.848 12.103L297.79 11.9239C298.149 11.8081 298.091 11.629 297.732 11.7447L298.623 12.0507C298.386 11.9294 298.328 11.7503 298.27 11.5711L298.218 10.7967C297.327 10.4908 296.975 10.0113 297.455 9.65851L297.756 9.36362C297.935 9.30575 298.293 9.19002 298.415 8.95301C298.369 7.58332 299.259 7.88924 300.092 8.01603L300.329 8.13729C300.688 8.02155 300.567 8.25856 300.266 8.55343L299.965 8.84831C298.762 10.0278 298.762 10.0278 299.762 11.2873L300.057 11.5877C300.173 11.946 300.589 12.0094 301.069 11.6566L301.428 11.5409L301.787 11.4251C302.203 11.4885 302.145 11.3094 302.087 11.1303L302.029 10.9511C301.856 10.4137 302.822 9.11293 303.476 9.29759L304.488 9.36651C305.442 9.25629 306.576 9.0882 306.697 8.8512C306.819 8.61419 308.068 8.80438 308.548 8.45163L309.086 8.27802C309.265 8.22014 309.387 7.98313 309.329 7.804C309.097 7.08746 309.872 7.03511 310.289 7.0985C311.006 6.86702 310.821 7.52017 310.937 7.87844C310.937 7.87844 311.474 7.70482 311.955 7.35207C312.435 6.99933 313.221 5.75644 314.176 5.64621L314.893 5.41474L315.431 5.24112C315.853 4.70924 316.333 4.35649 316.096 4.23522C316.096 4.23522 316.46 3.5242 317.658 2.93997L318.311 3.12463L319.381 3.37269C319.983 2.78293 320.341 2.66718 320.515 3.20459C320.509 3.79987 322.117 3.87431 322.001 3.51604C321.706 3.21564 321.718 2.02509 322.493 1.97274C323.21 1.74126 325.055 1.93696 325.356 1.64208C325.657 1.34721 326.559 0.462579 326.917 0.346831C327.334 0.410229 328.456 1.43269 328.93 1.67523C329.404 1.91775 330.468 2.76109 330.289 2.81895C330.11 2.87682 330.104 3.47211 330.52 3.53549L330.879 3.41976C331.417 3.24614 331.775 3.1304 332.25 3.37294C332.724 3.61546 332.724 3.61546 332.064 4.02608L330.746 4.84732C331.688 5.92765 332.452 7.06586 332.51 7.245C331.312 7.82923 332.145 7.95602 332.498 8.43555L333.088 9.03636C334.036 9.52141 334.805 10.0644 335.164 9.9486L335.343 9.89073C335.702 9.77499 336.24 9.60138 336.234 10.1967C336.465 10.9132 336.76 11.2136 337.483 10.3868L337.605 10.1498C338.258 10.3345 338.675 10.3979 338.374 10.6928C338.073 10.9876 337.529 11.7565 337.766 11.8778C338.003 11.9991 338.478 12.2416 338.177 12.5365L337.703 12.2939C337.228 12.0514 336.754 11.8089 336.338 11.7455L336.159 11.8033C336.037 12.0404 336.095 12.2195 336.153 12.3986C336.39 12.5199 336.806 12.5833 337.043 12.7046C337.28 12.8258 337.396 13.1841 337.454 13.3632C337.512 13.5424 337.211 13.8372 337.327 14.1955L337.621 14.4959C338.402 13.8483 338.391 15.0388 339.166 14.9865C340.421 14.5814 341.126 15.5405 341.838 15.9043C342.312 16.1468 342.786 16.3893 342.479 17.2795L342.294 17.9326C342.763 18.7704 342.815 19.5448 342.514 19.8397C342.213 20.1346 340.9 20.3606 340.779 20.5976L340.837 20.7767C341.132 21.0771 341.548 21.1405 341.964 21.2039C342.201 21.3252 342.259 21.5043 342.138 21.7413L341.889 22.8106C342.242 23.2901 342.895 23.4748 343.433 23.3012C343.971 23.1276 345.168 22.5433 345.047 22.7803C344.925 23.0173 345.695 23.5603 345.752 23.7394L345.452 24.0343L345.151 24.3292C345.087 24.7453 344.428 25.1559 343.948 25.5087L343.826 25.7457C343.525 26.0405 343.699 26.578 343.635 26.9941C343.572 27.4102 343.091 27.763 342.97 28L342.849 28.237C342.727 28.474 343.143 28.5374 343.56 28.6008L343.855 28.9012C343.913 29.0803 344.63 28.8488 344.931 28.554C345.231 28.2591 345.295 27.843 345.596 27.5481C345.775 27.4902 346.371 27.4957 346.608 27.617L347.146 27.4434C346.851 27.143 346.915 26.7268 347.036 26.4898C347.158 26.2528 348.233 25.9056 348.65 25.969C349.124 26.2115 350.13 26.8757 350.188 27.0549C350.246 27.234 350.477 27.9505 350.836 27.8348L351.379 27.0659C352.334 26.9557 352.75 27.0191 352.392 27.1348L352.091 27.4297C351.79 27.7246 350.951 28.1931 351.842 28.499C351.842 28.499 351.42 29.0309 351.356 29.447C351.235 29.684 351.408 30.2214 351.587 30.1636L352.9 29.9376C353.669 30.4805 354.381 30.8443 354.381 30.8443C354.381 30.8443 354.682 30.5494 355.098 30.6128C355.514 30.6762 356.648 30.5081 356.891 30.0341C357.134 29.5601 358.1 28.2593 358.696 28.2649C359.291 28.2704 359.754 29.7035 359.569 30.3566L359.864 30.657L360.159 30.9574C360.633 31.1999 361.593 30.4945 361.9 29.6043L363.085 30.2106L363.565 29.8579C363.276 28.9622 364.41 28.7941 364.89 28.4414L365.37 28.0886C365.075 27.7882 365.318 27.3142 365.619 27.0193L365.977 26.9036L367.412 26.4406C367.296 26.0823 367.065 25.3658 366.891 24.8284C366.718 24.291 367.146 23.1638 368.037 23.4698L368.69 23.6544C368.69 23.6544 368.806 24.0127 368.684 24.2497L368.384 24.5446C367.903 24.8973 367.782 25.1343 367.84 25.3135C368.077 25.4347 368.071 26.03 368.308 26.1513C368.488 26.0934 369.263 26.041 369.205 25.8619C369.147 25.6828 369.332 25.0296 369.569 25.1509C369.806 25.2722 370.518 25.636 370.275 26.11C370.032 26.584 369.661 27.8903 370.078 27.9537C370.494 28.0171 371.096 27.4273 371.211 27.7856C371.327 28.1439 369.754 30.6297 369.459 30.3293L369.939 29.9765C370.957 29.4502 370.188 28.9072 369.951 28.786L369.418 28.3643C368.996 28.8962 368.516 29.2489 368.337 29.3068C368.1 29.1855 367.504 29.18 367.62 29.5383L367.677 29.7174L367.735 29.8965C367.614 30.1335 367.435 30.1914 367.018 30.128L366.781 30.0068C366.544 29.8855 366.307 29.7642 366.127 29.8221L365.59 29.9957C365.052 30.1693 364.45 30.7591 364.329 30.9961C364.265 31.4122 364.855 32.013 365.092 32.1343C365.329 32.2556 366.283 32.1453 366.405 31.9083C366.526 31.6713 367.371 30.6076 367.967 30.6131C368.562 30.6186 370.529 30.5773 371.304 30.525L371.784 30.1722C372.264 29.8195 372.507 29.3455 372.333 28.808C372.218 28.4498 372.339 28.2128 372.224 27.8545L372.166 27.6754C372.467 27.3805 372.825 27.2647 372.704 27.5017C372.64 27.9179 373.051 28.5766 373.467 28.64C373.883 28.7034 375.208 27.2868 374.971 27.1656L374.792 27.2234L374.254 27.3971C373.774 27.7498 373.536 27.6285 373.542 27.0333L373.843 26.7384L374.208 26.0274C374.751 25.2585 375.353 24.6687 375.532 24.6109C375.711 24.553 376.55 24.0845 376.434 23.7262C376.319 23.3679 376.209 22.4144 376.388 22.3565C376.625 22.4778 376.62 23.0731 377.157 22.8995L377.875 22.668C377.58 22.3676 377.643 21.9514 377.765 21.7144C377.886 21.4774 378.424 21.3038 378.604 21.2459C378.604 21.2459 379.072 22.0837 379.303 22.8003L380.258 22.6901L381.033 22.6377C381.397 21.9267 382.056 21.5161 382.831 21.4637L383.485 21.6484L383.722 21.7697C384.081 21.6539 384.202 21.4169 384.086 21.0586L384.029 20.8795L383.971 20.7004C383.734 20.5791 383.977 20.1051 384.457 19.7523L384.937 19.3996C385.417 19.0468 385.955 18.8732 386.371 18.9366C386.608 19.0579 386.967 18.9422 387.088 18.7051L388.112 17.5835C388.945 17.7103 389.298 18.1898 388.997 18.4847L388.696 18.7796C388.696 18.7796 388.754 18.9587 388.812 19.1379C388.812 19.1379 389.049 19.2591 389.228 19.2013L389.888 18.7906C390.073 18.1375 390.079 17.5422 389.841 17.4209C389.425 17.3575 388.598 16.6355 389.315 16.404L389.674 16.2883L390.391 16.0568C390.634 15.5828 391.056 15.0509 391.293 15.1722C391.531 15.2934 392.543 15.3623 393.202 14.9517C393.861 14.5411 394.238 12.6395 395.07 12.7663L394.654 12.7029C394.411 13.1769 394.885 13.4195 395.602 13.188L395.782 13.1301C396.019 13.2514 396.314 13.5518 396.192 13.7888L396.013 13.8466C395.533 14.1994 394.989 14.9683 395.521 15.3899L396.527 16.0541C395.984 16.823 395.44 17.5919 395.556 17.9502C395.434 18.1872 395.845 18.8459 396.383 18.6723C396.921 18.4986 397.638 18.2672 397.221 18.2038C396.683 18.3774 395.417 19.973 395.474 20.1522C395.532 20.3313 394.63 21.2159 394.034 21.2104C393.439 21.2049 392.53 22.6848 392.056 22.4423C391.46 22.4367 390.13 24.4485 389.06 24.2005L388.69 25.5068L388.568 25.7438C387.851 25.9753 387.608 26.4493 388.082 26.6918L388.14 26.871C388.256 27.2292 388.551 27.5296 389.031 27.1769C389.869 26.7084 388.736 26.8765 388.857 26.6395C389.228 25.3332 390.066 24.8647 392.033 24.8234L392.987 24.7132C392.513 24.4706 392.282 23.7541 392.287 23.1588L393.178 23.4647C393.415 23.586 394.011 23.5915 394.369 23.4758C394.549 23.4179 394.907 23.3022 395.266 23.1864L395.746 22.8337C396.162 22.8971 396.816 23.0817 397.053 23.203C397.29 23.3243 398.065 23.2719 398.071 22.6766L397.539 22.255C397.244 21.9546 397.487 21.4806 398.083 21.4861C398.858 21.4337 399.453 21.4393 400.055 20.8495C400.477 20.3176 400.651 20.855 401.067 20.9184C401.484 20.9818 400.466 21.5082 401.298 21.635C401.478 21.5771 401.779 21.2822 401.958 21.2243C402.137 21.1665 402.316 21.1086 402.316 21.1086C402.374 21.2877 402.611 21.409 402.432 21.4669L402.01 21.9988C401.587 22.5306 401.345 23.0047 401.761 23.0681C402.177 23.1314 403.068 23.4374 403.184 23.7956C403.299 24.1539 403.768 24.9917 404.068 24.6968C404.369 24.402 405.266 24.1126 405.324 24.2917C405.017 25.1819 404.294 26.0087 403.397 26.298C402.68 26.5295 403.565 27.4307 402.732 27.3039C401.899 27.1771 401.72 27.235 401.772 28.0094L401.882 28.9629C400.979 29.8476 400.135 30.9113 399.776 31.0271L399.418 31.1428L398.701 31.3743C398.637 31.7905 398.753 32.1487 399.169 32.2121C399.585 32.2755 400.476 32.5814 400.054 33.1133L399.753 33.4082L399.094 33.8188C398.92 33.2814 398.504 33.218 398.203 33.5129C397.902 33.8078 396.659 33.0223 396.306 32.5428L395.531 32.5951C395.352 32.653 395.762 33.3117 396.231 34.1495L396.821 34.7503L396.878 34.9294C397.116 35.0507 397.474 34.9349 397.538 34.5188L397.659 34.2818C397.781 34.0448 398.018 34.166 398.133 34.5243C398.249 34.8826 398.301 35.657 398.301 35.657C398.122 35.7149 397.526 35.7093 397.168 35.8251L396.751 35.7617C396.155 35.7562 396.092 36.1723 396.207 36.5306C396.381 37.068 396.797 37.1314 397.451 37.316C397.688 37.4373 398.712 36.3157 398.833 36.0787C398.775 35.8995 399.377 35.3098 399.921 34.5409L400.638 34.3094L401.355 34.0779C402.014 33.6673 402.61 33.6728 403.021 34.3315L403.437 34.3949L404.686 34.5851C404.559 35.4174 404.252 36.3075 403.772 36.6603L403.766 37.2555L403.581 37.9087C402.806 37.961 402.031 38.0134 401.673 38.1291C401.314 38.2449 398.254 40.4192 396.577 41.3562L396.288 40.4605L395.692 40.455C395.513 40.5129 395.686 41.0503 395.686 41.0503C396.699 41.1192 396.924 42.431 398.121 41.8468C398.301 41.7889 398.538 41.9102 398.595 42.0893C398.769 42.6267 399.486 42.3952 399.608 42.1582C400.03 41.6263 400.753 40.7996 400.637 40.4413L400.29 39.3665C400.302 38.1759 400.609 37.2858 400.967 37.17C401.384 37.2334 401.927 36.4646 402.164 36.5858C402.402 36.7071 402.887 35.7591 402.055 35.6323L401.58 35.3897C401.048 34.9681 400.568 35.3208 400.088 35.6736C399.787 35.9684 399.724 36.3846 399.782 36.5637L399.654 37.396C399.053 37.9858 397.977 38.333 397.503 38.0904L397.138 38.8015L396.895 39.2755C396.652 39.7495 396.647 40.3448 397.063 40.4082C397.479 40.4716 399.631 39.7771 400.047 39.8405C400.464 39.9039 401.163 41.4583 400.799 42.1693C400.255 42.9382 397.572 43.211 397.572 43.211C397.514 43.0318 397.219 42.7314 396.681 42.905C395.964 43.1365 394.535 43.0042 394.836 42.7093L394.958 42.4723C394.72 42.351 393.888 42.2243 392.991 42.5136L392.274 42.7451C391.736 42.9187 390.845 42.6128 390.07 42.6651C390.07 42.6651 390.013 42.486 389.897 42.1277C389.781 41.7694 389.191 41.1687 388.954 41.0474C388.717 40.9261 387.878 41.3946 388.116 41.5159C388.295 41.458 388.648 41.9375 388.347 42.2324L388.046 42.5273L387.566 42.88C387.861 43.1804 387.797 43.5966 387.618 43.6545C387.439 43.7123 386.779 44.123 386.837 44.3021C386.895 44.4812 387.427 44.9029 387.965 44.7293L388.323 44.6135L388.503 44.5557C388.624 44.3187 388.804 44.2608 388.861 44.4399C388.919 44.6191 388.856 45.0352 388.676 45.0931C388.497 45.1509 388.196 45.4458 388.67 45.6883L388.011 46.099C387.89 46.336 387.352 46.5096 387.115 46.3883L386.698 46.3249C386.397 46.6198 386.154 47.0938 385.854 47.3887C385.553 47.6836 385.125 48.8107 385.541 48.8741C385.958 48.9375 386.906 49.4226 386.247 49.8332L386.067 49.8911C385.235 49.7643 384.095 50.5276 383.39 49.5686C383.39 49.5686 382.794 49.563 382.672 49.8001L382.314 49.9158C381.892 50.4477 381.828 50.8638 382.424 50.8693L382.661 50.9906C383.135 51.2331 383.314 51.1753 383.557 50.7013C383.557 50.7013 384.147 51.3021 384.026 51.5391C383.846 51.5969 383.904 51.7761 383.725 51.8339C383.245 52.1867 382.707 52.3603 382.047 52.7709L381.388 53.1815C381.562 53.7189 381.44 53.9559 381.203 53.8347C380.966 53.7134 380.798 52.5807 380.74 52.4016C380.683 52.2225 379.665 52.7488 379.832 53.8815L379.474 53.9972ZM312.751 84.0382C311.86 83.7323 311.687 83.1949 312.225 83.0212C312.763 82.8476 313.856 80.7146 313.497 80.8303C313.081 80.7669 312.832 81.8362 312.711 82.0732L312.294 82.0098L311.161 82.1779C311.334 82.7153 311.027 83.6055 310.368 84.0161L310.304 84.4322L310.241 84.8484C310.651 85.507 311.068 85.5704 311.253 84.9173L311.611 84.8016L312.751 84.0382ZM386.081 24.1729C386.024 23.9937 386.562 23.8201 387.157 23.8256L387.753 23.8312L388.349 23.8367C388.944 23.8422 389.54 23.8477 389.719 23.7899C389.899 23.732 389.546 23.2525 389.309 23.1312L387.817 23.415L387.637 23.4729C387.342 23.1725 387.707 22.4615 388.603 22.1721C389.263 21.7615 391.293 21.3041 391.177 20.9458C390.882 20.6454 390.113 20.1025 389.633 20.4552L389.332 20.7501L388.91 21.282C388.436 21.0394 387.782 20.8548 387.366 20.7914L387.065 21.0863L386.463 21.676C386.816 22.1556 386.631 22.8087 386.272 22.9244C385.914 23.0402 384.89 24.1618 383.994 24.4512L383.924 25.4626L382.906 25.989L381.952 26.0992C381.408 26.8681 381.101 27.7582 381.518 27.8216C381.934 27.885 382.761 28.6071 382.46 28.9019C382.16 29.1968 381.026 29.3649 380.436 28.7641L379.609 28.042C379.314 27.7416 379.199 27.3834 378.719 27.7361C378.418 28.031 377.88 28.2046 377.816 28.6207C377.695 28.8578 377.868 29.3952 377.805 29.8113C377.741 30.2274 377.261 30.5802 377.319 30.7593C377.608 31.655 377.857 30.5857 378.094 30.707C378.273 30.6491 378.331 30.8282 378.389 31.0074C378.146 31.4814 378.14 32.0767 377.839 32.3716C377.417 32.9034 376.994 33.4353 376.572 33.9672C376.451 34.2042 376.387 34.6204 376.445 34.7995C376.74 35.0999 377.098 34.9841 377.341 34.5101C377.521 34.4523 377.7 34.3944 377.879 34.3365C378.591 34.7003 379.244 34.885 379.967 34.0582L380.389 33.5263C380.991 32.9366 381.234 32.4626 381.055 32.5204C380.818 32.3992 380.644 31.8618 381.066 31.3299C381.489 30.798 383.525 29.7453 384.357 29.8721L385.254 29.5827L385.971 29.3512C386.804 29.478 387.4 29.4835 387.162 29.3623C386.925 29.241 386.937 28.0505 387.122 27.3973L386.648 27.1548L386.174 26.9123C385.399 26.9646 384.566 26.8378 384.45 26.4795C384.392 26.3004 384.34 25.526 384.398 25.7051L384.578 25.6472C385.353 25.5949 385.341 26.7855 386.18 26.317C386.423 25.843 386.133 24.9473 386.081 24.1729ZM353.385 41.2534C353.813 40.1262 353.998 39.4731 353.877 39.7101L353.935 39.8892C353.929 40.4845 353.628 40.7794 352.969 41.19C352.847 41.427 352.604 41.901 352.662 42.0801C353.194 42.5018 353.437 42.0278 353.738 41.7329C353.917 41.6751 354.154 41.7963 354.513 41.6806C354.871 41.5648 355.409 41.3912 354.698 41.0274C354.461 40.9062 354.345 40.5479 354.467 40.3109C354.53 39.8948 354.831 39.5999 354.953 39.3629C354.953 39.3629 354.895 39.1837 354.837 39.0046C353.807 40.7215 352.303 42.1959 351.528 42.2482C350.753 42.3006 349.325 42.1683 349.735 42.827L350.088 43.3065L350.684 43.312L351.349 42.3061C351.817 43.1439 352.957 42.3806 353.385 41.2534ZM355.721 46.0377C354.639 46.9802 354.038 47.57 354.159 47.333L354.339 47.2751C354.46 47.0381 354.819 46.9223 355.177 46.8066L355.478 46.5117C355.779 46.2168 355.721 46.0377 355.305 45.9743L355.01 45.6739L354.952 45.4948C354.952 45.4948 354.709 45.9688 354.466 46.4428C354.044 46.9747 353.315 48.3967 353.673 48.281L353.911 48.4022L354.148 48.5235C354.148 48.5235 354.327 48.4656 354.506 48.4078C354.686 48.3499 355.166 47.9971 354.749 47.9337C354.57 47.9916 356.022 45.7428 356.502 45.3901C357.04 45.2165 357.809 45.7594 357.867 45.9385C357.329 46.1121 357.028 46.407 357.323 46.7074C357.855 47.1291 357.803 46.3547 358.04 46.4759L358.22 46.4181C358.636 46.4815 358.7 46.0653 358.526 45.5279C358.416 44.5744 356.803 45.0952 355.721 46.0377ZM271.243 130.863C271 131.337 270.341 131.748 269.745 131.742L269.207 131.916C269.028 131.974 268.727 132.269 268.548 132.326L268.004 133.095C268.062 133.275 267.819 133.749 268.056 133.87C268.472 133.933 269.126 134.118 269.305 134.06C269.785 133.707 270.207 133.175 270.63 132.643C270.335 132.343 270.456 132.106 270.693 132.227C271.052 132.112 272.006 132.001 272.249 131.527C272.793 130.758 271.665 130.331 271.243 130.863ZM359.242 63.6922C360.618 63.0501 361.098 62.6973 360.202 62.9867L360.988 61.7438L361.168 61.6859C360.873 61.3855 360.456 61.3221 360.098 61.4378C360.092 62.0331 360.503 62.6918 360.439 63.1079L360.375 63.5241C359.953 64.056 359.531 64.5878 359.531 64.5878C359.531 64.5878 360.126 64.5934 360.901 64.541L361.439 64.3674C361.619 64.3095 361.804 63.6564 361.567 63.5351L360.381 62.9288C359.473 64.4087 358.513 65.1142 358.397 64.7559C358.281 64.3977 359.542 63.3973 359.485 63.2182L359.427 63.039L358.831 63.0335C358.108 63.8603 357.327 64.5079 356.072 64.913C355.893 64.9708 355.65 65.4449 355.586 65.861C355.702 66.2193 357.865 64.3343 359.242 63.6922ZM337.64 61.1701C336.57 60.922 336.09 61.2748 336.443 61.7543L336.975 62.176C337.033 62.3551 337.391 62.2394 337.571 62.1815L337.75 62.1236C337.871 61.8866 337.993 61.6496 337.756 61.5284L337.519 61.4071C337.281 61.2858 336.865 61.2224 336.865 61.2224C336.813 60.448 337.224 61.1067 337.582 60.9909C337.762 60.9331 337.825 60.5169 337.646 60.5748C337.235 59.9161 337.773 59.7425 338.311 59.5689C338.49 59.511 338.612 59.274 338.733 59.037L338.676 58.8579C338.438 58.7366 337.663 58.789 336.946 59.0205C336.229 59.2519 338.224 62.3662 338.455 63.0827L337.617 63.5512L336.599 64.0776C337.131 64.4992 337.726 64.5047 338.027 64.2099C338.091 63.7937 339.167 63.4465 339.23 63.0304C339.294 62.6142 340.306 62.6831 340.428 62.4461C340.37 62.267 338.889 61.3603 337.64 61.1701ZM382.002 45.2693C381.828 44.7319 382.014 44.0788 382.372 43.963L382.731 43.8473L383.089 43.7315C383.39 43.4367 383.807 43.5001 383.864 43.6792C383.98 44.0375 384.871 44.3434 385.293 43.8115L385.299 43.2162C385.305 42.6209 384.651 42.4363 384.235 42.3729L383.581 42.1882C382.569 42.1193 381.852 42.3508 381.788 42.7669C381.725 43.1831 384.616 46.008 384.385 45.2914L383.731 45.1068L383.552 45.1646C383.251 45.4595 383.014 45.3382 382.898 44.98L382.661 44.8587L382.187 44.6162C382.071 44.2579 381.597 44.0154 381.418 44.0732L381.239 44.1311L381.059 44.189C380.938 44.426 380.816 44.663 380.932 45.0213C380.868 45.4374 382.175 45.8067 382.002 45.2693ZM133.878 116.849C137.001 114.259 138.921 112.848 138.077 113.912C137.232 114.975 137.342 115.929 137.886 115.16L138.487 114.57L139.268 113.923C136.029 116.155 133.987 117.803 134.762 117.751L135.121 117.635L135.3 117.577C135.48 117.519 135.601 117.282 135.306 116.982L135.127 117.04C134.711 116.976 134.23 117.329 134.236 116.734C134.178 116.555 134.659 116.202 134.959 115.907C135.26 115.612 135.266 115.017 135.625 114.901L137.117 114.617C136.527 114.016 135.636 113.71 135.278 113.826L135.573 114.127L135.33 114.601C135.144 115.254 134.844 115.549 134.607 115.427C134.369 115.306 133.594 115.358 134.005 116.017L133.941 116.433L133.878 116.849ZM369.192 39.3163C369.487 39.6167 369.365 39.8537 368.891 39.6112C368.417 39.3686 367.214 40.5481 367.272 40.7273L367.509 40.8485C367.925 40.9119 368.463 40.7383 368.879 40.8017C369.296 40.8651 369.649 41.3447 369.828 41.2868L370.186 41.171C370.487 40.8762 371.147 40.4655 371.326 40.4077C371.684 40.2919 371.991 39.4018 372.176 38.7486C372.419 38.2746 372.737 36.1939 372.969 36.9104L373.802 37.0372C373.981 36.9794 374.403 36.4475 374.582 36.3896C374.941 36.2739 375.3 36.1581 375.479 36.1003L375.78 35.8054C376.023 35.3314 375.907 34.9731 375.427 35.3258L375.248 35.3837C375.068 35.4416 375.062 36.0369 374.71 35.5573C374.652 35.3782 374.773 35.1412 374.716 34.962L374.895 34.9042C375.554 34.4936 375.496 34.3144 375.022 34.0719L374.311 33.7081C373.652 34.1187 373.229 34.6506 373.466 34.7719C373.703 34.8931 373.935 35.6097 373.755 35.6676C373.576 35.7254 372.789 36.9683 372.552 36.8471C372.373 36.9049 371.471 37.7896 371.401 38.801L369.909 39.0848L369.192 39.3163ZM126.896 124.048C127.856 123.342 128.938 122.4 129.302 121.689C129.725 121.157 131.986 121.416 132.281 121.716L132.576 122.017C132.634 122.196 133.172 122.022 133.172 122.022C133.293 121.785 133.415 121.548 133.357 121.369L133.004 120.89C132.472 120.468 132.478 119.873 132.779 119.578C133.316 119.404 132.912 118.15 132.374 118.324L131.836 118.497L131.298 118.671C131.234 119.087 130.575 119.498 129.979 119.492L129.858 119.729L129.193 120.735C128.944 121.804 128.041 122.689 127.087 122.799C126.723 123.51 125.948 123.563 125.41 123.736L125.23 123.794C125.109 124.031 125.404 124.332 125.641 124.453L125.82 124.395L126.896 124.048ZM346.865 56.0167C348.595 55.8541 350.683 55.5758 351.4 55.3444L351.764 54.6333C351.886 54.3963 352.186 54.1015 352.366 54.0436L352.724 53.9278C353.141 53.9912 353.442 53.6963 353.384 53.5172L353.685 53.2223C354.165 52.8696 354.055 51.916 354.413 51.8003L355.669 51.3952C355.258 50.7365 355.084 50.1991 355.443 50.0834C355.802 49.9676 356.756 49.8574 356.814 50.0366L356.872 50.2157C356.929 50.3948 357.224 50.6952 357.462 50.8165L357.82 50.7008L357.884 50.2846C357.768 49.9263 356.82 49.4413 355.513 49.072L354.732 49.7196L353.893 50.1881C353.708 50.8412 353.343 51.5522 353.106 51.431C352.927 51.4889 352.389 51.6625 352.326 52.0786L352.383 52.2577L352.441 52.4369C352.678 52.5581 352.435 53.0321 351.776 53.4428C351.117 53.8534 349.798 54.6746 349.913 55.0329C350.029 55.3912 347.744 57.5132 348.346 56.9234L349.659 56.6975C349.838 56.6396 350.139 56.3447 350.081 56.1656C350.145 55.7494 349.965 55.8073 349.428 55.9809C349.069 56.0967 348.89 56.1545 348.473 56.0911L346.865 56.0167ZM318.575 79.3891C318.518 79.2099 319.304 77.967 320.507 76.7875L322.352 76.9832C322.532 76.9254 322.832 76.6305 322.954 76.3935C323.197 75.9195 323.203 75.3242 323.625 74.7923C323.926 74.4974 324.585 74.0868 324.822 74.2081C325.476 74.3927 325.834 74.277 325.898 73.8608C325.962 73.4447 325.846 73.0864 325.551 72.786L324.84 72.4222C323.527 72.6482 322.81 72.8797 323.226 72.9431C323.643 73.0065 324.053 73.6651 323.752 73.96C323.451 74.2549 321.78 74.5966 321.063 74.8281L320.403 75.2387C319.744 75.6493 320.455 76.0131 320.45 76.6084L320.507 76.7875C320.565 76.9667 319.79 77.019 318.778 76.9501L318.119 77.3607C317.459 77.7713 318.35 78.0772 318.228 78.3143C317.986 78.7883 317.268 79.0197 317.205 79.4359C316.898 80.3261 318.396 79.4469 318.448 80.2214C318.743 80.5218 318.691 79.7473 318.575 79.3891ZM136.474 119.374C136.295 119.432 136.173 119.669 136.289 120.027C136.405 120.385 136.277 121.218 135.803 120.975L135.329 120.733C135.092 120.611 134.913 120.669 134.733 120.727C134.554 120.785 134.49 121.201 134.49 121.201L135.618 121.628C135.728 122.582 136.081 123.061 136.202 122.824C136.324 122.587 137.047 121.761 137.463 121.824L137.29 121.286L137.232 121.107C137.116 120.749 137.475 120.633 137.712 120.755C137.949 120.876 138.602 121.061 138.724 120.824C138.845 120.587 138.909 120.17 139.088 120.113C139.268 120.055 139.626 119.939 139.511 119.581C139.395 119.222 139.285 118.269 139.465 118.211L139.644 118.153L139.823 118.095C140.002 118.037 139.945 117.858 139.887 117.679C139.829 117.5 137.753 116.588 137.747 117.183C137.44 118.073 136.654 119.316 136.474 119.374ZM162.416 98.5397C162.474 98.7188 162.294 98.7767 162.057 98.6554C161.82 98.5341 161.519 98.829 161.635 99.1873C161.693 99.3664 160.496 99.9507 159.663 99.8239L159.119 100.593L158.998 100.83C159.113 101.188 159.35 101.309 159.767 101.373L159.888 101.136C160.31 100.604 160.31 100.604 160.663 101.083C160.721 101.262 160.9 101.205 160.958 101.384C161.554 101.389 161.745 100.141 162.751 100.805C162.93 100.747 163.59 100.337 164.012 99.8047L163.781 99.0881L163.723 98.909C163.486 98.7877 163.844 98.672 164.619 98.6196L165.036 98.683C165.215 98.6251 165.574 98.5094 165.516 98.3303C165.637 98.0933 165.4 97.972 165.342 97.7929L165.105 97.6716C164.747 97.7873 164.394 97.3078 164.4 96.7125L165.29 97.0184C165.47 96.9606 165.354 96.6023 165.354 96.6023C165.117 96.481 164.047 96.233 163.214 96.1062L162.792 96.6381C162.607 97.2912 162.601 97.8865 162.416 98.5397ZM392.957 33.8215C393.495 33.6478 393.738 33.1738 393.264 32.9313L393.027 32.81C392.495 32.3884 392.495 32.3884 392.072 32.9203C391.829 33.3943 391.292 33.5679 391.228 33.984L390.985 34.458C391.037 35.2324 390.499 35.4061 389.788 35.0423L389.313 34.7997L389.076 34.6785C388.718 34.7942 388.475 35.2682 388.411 35.6844C388.347 36.1005 389.053 37.0596 389.649 37.0651L390.007 36.9494L390.846 36.4809C391.627 35.8333 392.419 33.9951 392.957 33.8215ZM357.579 32.779C359.071 32.4952 360.569 31.6161 361.292 30.7893L359.441 31.1889C359.083 31.3046 359.152 30.2932 358.493 30.7038L358.134 30.8196C358.071 31.2357 357.828 31.7097 357.706 31.9468C357.527 32.0046 357.226 32.2995 356.989 32.1782L356.931 31.9991L356.873 31.82C356.816 31.6408 356.758 31.4617 356.579 31.5196L356.399 31.5774L355.919 31.9302C354.947 33.8262 354.878 34.8377 355.838 34.1322L356.619 33.4845L357.579 32.779ZM371.18 55.2896C370.648 54.868 370.168 55.2207 369.983 55.8738L369.682 56.1687C369.202 56.5215 368.369 56.3947 367.831 56.5683C367.293 56.7419 366.634 57.1525 366.154 57.5053C365.974 57.5631 366.327 58.0427 366.206 58.2797L366.263 58.4588C366.084 58.5167 365.905 58.5746 365.488 58.5112C365.251 58.3899 364.118 58.558 364.291 59.0954L364.407 59.4537C364.875 60.2915 365.292 60.3549 366.252 59.6494C366.552 59.3545 366.969 59.4179 366.795 58.8805C366.801 58.2852 367.281 57.9325 367.999 57.701C368.536 57.5274 368.901 56.8164 369.676 56.764C370.688 56.8329 369.745 55.7526 370.642 55.4632L371.18 55.2896ZM325.806 71.1215C325.69 70.7632 325.453 70.6419 325.453 70.6419C325.332 70.8789 325.326 71.4742 325.383 71.6534C325.499 72.0116 326.8 72.9762 327.749 73.4613L328.414 72.4554C328.715 72.1605 328.958 71.6865 329.201 71.2125L329.322 70.9755C329.207 70.6172 328.969 70.4959 328.611 70.6117L328.432 70.6695C328.252 70.7274 328.131 70.9644 327.951 71.0223C327.414 71.1959 327.714 70.901 327.599 70.5428L327.541 70.3636C327.061 70.7164 325.921 71.4797 325.806 71.1215ZM107.813 156.316C108.05 156.438 108.166 156.796 108.044 157.033C107.923 157.27 108.096 157.807 108.455 157.692L108.576 157.455C108.877 157.16 109.178 156.865 109.478 156.57L110.201 155.743C109.733 154.905 109.022 154.542 108.663 154.657C108.125 154.831 107.518 156.016 107.813 156.316ZM111.983 150.223C112.342 150.107 112.521 150.05 112.521 150.05C112.521 150.05 112.105 149.986 111.567 150.16L111.151 150.096C110.734 150.033 110.555 150.091 110.433 150.328C110.312 150.565 110.37 150.744 110.428 150.923L110.774 151.998C111.781 152.662 112.972 152.673 113.574 152.083C113.996 151.552 114.962 150.251 114.366 150.245C113.817 151.609 112.689 151.182 111.735 151.292C111.555 151.35 111.26 151.05 111.382 150.813C111.324 150.634 111.445 150.397 111.625 150.339L111.983 150.223ZM362.171 32.2858C361.755 32.2224 361.275 32.5752 360.852 33.107L360.609 33.5811C360.488 33.8181 361.622 33.65 360.783 34.1185C360.124 34.5291 360.181 34.7082 360.656 34.9508C360.893 35.072 361.367 35.3146 361.783 35.3779C361.963 35.3201 362.084 35.0831 361.969 34.7248C361.853 34.3665 362.16 33.4764 362.518 33.3606C362.877 33.2449 362.588 32.3492 362.171 32.2858ZM116.214 119.781C116.625 120.44 117.278 120.625 117.521 120.151L117.643 119.914C118.186 119.145 118.788 118.555 119.332 117.786C119.933 117.196 119.933 117.196 119.754 117.254C119.216 117.428 118.8 117.364 118.863 116.948L118.985 116.711C119.644 116.301 119.529 115.942 118.991 116.116L118.632 116.232C117.736 116.521 117.973 116.642 117.903 117.654C117.84 118.07 118.435 118.075 118.314 118.312C118.013 118.607 117.77 119.081 117.411 119.197L116.214 119.781ZM333.314 64.9401C333.076 64.8188 332.654 65.3507 332.648 65.946L332.943 66.2464L333.296 66.7259C334.007 67.0897 334.84 67.2165 335.199 67.1008C335.557 66.985 336.396 66.5165 336.28 66.1583C336.223 65.9791 333.551 65.0614 333.314 64.9401ZM386.948 39.1237C386.884 39.5399 386.942 39.719 386.942 39.719C386.942 39.719 387.3 39.6032 387.601 39.3084C387.723 39.0714 388.619 38.782 388.792 39.3194L388.908 39.6777C388.966 39.8568 389.325 39.7411 389.504 39.6832C389.683 39.6253 389.862 39.5675 389.805 39.3883C389.747 39.2092 389.573 38.6718 389.573 38.6718C390.175 38.082 389.342 37.9553 389.226 37.597C388.816 36.9383 388.214 37.5281 387.856 37.6438C387.023 37.517 387.081 37.6962 387.011 38.7076L386.948 39.1237ZM132.356 126.242C132.714 126.126 132.541 125.588 132.246 125.288L131.951 124.988C131.893 124.808 131.714 124.866 131.535 124.924C131.355 124.982 131.176 125.04 130.997 125.098C130.997 125.098 130.875 125.335 131.054 125.277C131.708 125.462 131.407 125.756 131.049 125.872C130.632 125.809 130.158 125.566 129.742 125.503C129.325 125.439 128.666 125.85 128.544 126.087C128.481 126.503 128.897 126.567 129.256 126.451C129.435 126.393 129.551 126.751 129.788 126.873L129.903 127.231C130.077 127.768 130.378 127.473 130.505 126.641L131.997 126.357L132.356 126.242ZM400.905 25.3224C400.968 24.9062 400.795 24.3688 400.558 24.2475L400.199 24.3633C399.841 24.479 399.54 24.7739 399.418 25.0109C398.996 25.5428 398.753 26.0168 398.331 26.5487L398.209 26.7857C398.204 27.381 398.441 27.5022 398.562 27.2652C398.863 26.9704 399.465 26.3806 399.702 26.5019C399.881 26.444 400.841 25.7385 400.905 25.3224ZM77.0388 208.182C77.2818 207.708 77.4091 206.876 76.9985 206.217L76.1598 206.686C75.8591 206.98 75.8532 207.576 75.6681 208.229L75.7259 208.408C75.8415 208.766 75.7201 209.003 75.4829 208.882C75.2458 208.761 75.188 208.582 74.9509 208.46L74.5923 208.576C74.6501 208.755 74.7657 209.114 75.0029 209.235L75.4771 209.477C76.1306 209.662 76.79 209.251 76.8537 208.835L77.0966 208.361L77.0388 208.182ZM119.822 134.639C119.232 134.038 118.867 134.749 118.671 136.592L120.816 136.493L120.996 136.435C121.117 136.198 121.181 135.782 121.123 135.603L120.944 135.661C120.406 135.835 120.348 135.656 120.053 135.355L119.822 134.639ZM116.885 124.312C117.243 124.196 116.891 123.717 115.763 123.29L115.283 123.642L115.103 123.7C114.918 124.353 114.496 124.885 114.49 125.481C114.426 125.897 115.08 126.081 115.375 126.382C115.433 126.561 115.971 126.387 115.971 126.387C116.15 126.329 116.214 125.913 115.977 125.792L115.682 125.492C115.387 125.191 116.526 124.428 116.885 124.312ZM292.233 116.77C292.054 116.828 291.574 117.18 291.273 117.475L291.03 117.949C290.909 118.186 291.203 118.487 291.498 118.787L291.857 118.671L292.094 118.793C292.331 118.914 292.626 119.214 293.043 119.278L293.343 118.983C293.523 118.925 293.17 118.445 293.112 118.266C292.817 117.966 292.343 117.723 293.002 117.313C293.361 117.197 294.136 117.145 293.725 116.486L293.552 115.949C292.95 116.538 292.233 116.77 292.233 116.77ZM68.4903 211.139C68.5481 211.318 68.5481 211.318 68.5481 211.318C68.5481 211.318 68.3688 211.376 68.4267 211.555C68.4267 211.555 68.7216 211.856 69.0802 211.74L69.2017 211.503L69.3232 211.266C69.4446 211.029 69.7454 210.734 70.1618 210.797L70.1677 210.202C70.2313 209.786 70.9485 209.554 71.1915 209.08C71.4923 208.786 71.018 208.543 70.6016 208.48C70.243 208.595 69.468 208.648 69.8786 209.306C69.8786 209.306 69.3985 209.659 69.2192 209.717C67.7848 210.18 67.7848 210.18 68.4903 211.139ZM352.865 39.6412C353.345 39.2884 353.408 38.8723 353.229 38.9302L353.05 38.988C352.633 38.9246 352.038 38.9191 351.679 39.0348C351.378 39.3297 351.135 39.8037 351.251 40.162C351.424 40.6994 351.066 40.8152 350.586 41.1679C350.106 41.5206 350.58 41.7632 350.996 41.8266L351.471 42.0691C351.951 41.7164 352.442 40.1731 352.865 39.6412ZM131.263 176.835C131.026 176.713 130.546 177.066 130.002 177.835L129.58 178.367L128.857 179.194C129.511 179.378 130.228 179.147 130.529 178.852C131.246 178.62 131.558 177.135 131.263 176.835ZM343.401 56.9371C343.517 57.2954 343.58 56.8792 343.887 55.9891L344.251 55.2781L344.795 54.5092C343.962 54.3824 343.309 54.1977 343.366 54.3769C343.424 54.556 343.418 55.1513 343.534 55.5095L342.701 55.3828C342.522 55.4406 342.042 55.7934 341.92 56.0304L341.799 56.2674C341.915 56.6257 343.285 56.5788 343.401 56.9371ZM182.076 86.4581C182.313 86.5794 182.492 86.5215 182.613 86.2845C182.498 85.9262 182.087 85.2676 182.804 85.0361C183.522 84.8046 183.533 83.614 184.661 84.0412C185.078 84.1046 185.621 83.3357 185.326 83.0353C184.794 82.6137 184.846 83.3881 184.667 83.4459C184.488 83.5038 184.251 83.3825 184.071 83.4404C183.412 83.851 182.695 84.0825 182.272 84.6144L181.85 85.1463C181.607 85.6203 181.896 86.516 182.076 86.4581ZM371.859 34.6974C372.159 34.4026 371.384 34.4549 370.251 34.623L369.412 35.0915L369.053 35.2072C369.048 35.8025 369.163 36.1608 369.4 36.282L369.58 36.2242C370.239 35.8135 370.291 36.588 370.707 36.6513L370.945 36.7726C371.303 36.6569 371.668 35.9459 371.731 35.5297L371.859 34.6974ZM121.557 127.749L121.615 127.928C121.615 127.928 122.39 127.876 122.87 127.523L122.934 127.107C123.061 126.274 123.721 125.864 124.322 125.274C124.502 125.216 124.745 124.742 124.687 124.563C124.097 123.962 124.207 124.916 124.027 124.974L123.252 125.026C122.593 125.437 121.928 126.443 121.743 127.096L121.557 127.749ZM252.213 145.51C251.797 145.447 251.496 145.742 251.791 146.042C252.086 146.343 252.618 146.764 253.035 146.828C253.451 146.891 254.295 145.827 254.538 145.353L254.781 144.879L255.024 144.405C254.909 144.047 254.313 144.042 254.012 144.336L253.711 144.631L253.59 144.868C253.526 145.284 252.572 145.395 252.213 145.51ZM123.269 129.372C123.206 129.788 123.385 129.73 123.506 129.493C123.628 129.256 124.224 129.262 124.519 129.562C124.871 130.042 125.935 130.885 126.115 130.827L126.236 130.59C126.479 130.116 127.26 129.469 125.889 129.515C125.71 129.573 125.415 129.273 125.415 129.273C125.363 128.498 124.53 128.372 123.877 128.187C123.518 128.303 123.154 129.014 123.269 129.372ZM371.539 49.042C372.007 49.8798 372.482 50.1223 372.545 49.7061L372.487 49.527C372.436 48.7526 372.973 48.579 373.511 48.4054C373.87 48.2896 374.107 48.4109 374.466 48.2952L374.645 48.2373C375.003 48.1216 375.067 47.7054 374.772 47.405L374.535 47.2837C373.465 47.0357 372.684 47.6833 372.083 48.2731L371.539 49.042ZM272.654 132.781C272.116 132.955 271.815 133.25 272.29 133.492C272.764 133.735 273.834 133.983 274.077 133.509C274.32 133.035 274.806 132.087 274.748 131.908C274.568 131.966 273.25 132.787 272.654 132.781ZM232.38 163.187C232.085 162.886 231.31 162.938 230.65 163.349L230.17 163.702L229.991 163.76C229.869 163.997 230.164 164.297 230.402 164.418C230.824 163.886 231.182 163.771 231.593 164.429L231.946 164.909C233.021 164.562 232.675 163.487 232.38 163.187ZM364.661 57.7891C365.199 57.6155 365.384 56.9623 364.852 56.5407L363.956 56.83L363.059 57.1194C362.695 57.8304 363.944 58.0206 364.661 57.7891ZM5.95652 166.445C5.18151 166.497 4.70143 166.85 4.99637 167.151C5.2913 167.451 6.29759 168.115 6.65618 167.999C7.01478 167.884 6.91083 166.335 5.95652 166.445ZM343.673 59.6186C343.366 60.5088 343.776 61.1675 344.609 61.2942L344.679 60.2828C344.685 59.6875 345.344 59.2769 345.766 58.745L346.067 58.4502C346.31 57.9762 343.8 58.7863 343.673 59.6186ZM290.741 117.054C290.862 116.817 290.625 116.695 290.03 116.69L289.613 116.626L288.723 116.321C288.3 116.852 287.814 117.8 287.392 118.332L287.745 118.812C287.803 118.991 288.219 119.054 288.398 118.996L288.757 118.881C288.699 118.702 288.526 118.164 288.589 117.748L288.89 117.453C289.191 117.158 290.619 117.291 290.741 117.054ZM156.457 116.88C156.509 117.655 156.925 117.718 157.226 117.423L157.168 117.244C157.053 116.886 156.758 116.585 156.283 116.343L155.751 115.921C154.728 117.043 154.184 117.812 154.421 117.933C154.658 118.054 155.317 117.644 155.381 117.227L155.56 117.17L156.457 116.88ZM191.151 78.3862C191.752 77.7965 191.579 77.259 190.983 77.2535L190.388 77.248C190.208 77.3059 190.029 77.3637 190.029 77.3637C190.318 78.2594 189.306 78.1905 189.005 78.4854C188.826 78.5433 188.941 78.9015 188.999 79.0807C189.294 79.3811 190.428 79.213 190.729 78.9181L191.151 78.3862ZM352.118 48.9809C352.123 48.3857 351.707 48.3223 351.285 48.8542C350.863 49.3861 351.024 51.114 351.082 51.2931L351.62 51.1195C352.158 50.9459 352.459 50.651 352.164 50.3507C351.632 49.929 351.753 49.692 351.996 49.218L352.118 48.9809ZM167.043 94.4748C167.28 94.596 167.818 94.4224 168.119 94.1275C168.42 93.8327 168.669 92.7634 167.957 92.3996L167.176 93.0472L166.876 93.3421C166.395 93.6948 166.806 94.3535 167.043 94.4748ZM121.459 131.737C121.58 131.5 121.644 131.083 121.407 130.962C121.17 130.841 120.215 130.951 119.972 131.425C119.55 131.957 121.216 132.211 121.459 131.737ZM172.064 92.8544C170.808 93.2595 170.623 93.9126 171.693 94.1607L172.358 93.1548C172.659 92.8599 172.902 92.3859 173.145 91.9119C173.267 91.6749 173.151 91.3166 173.035 90.9583C173.035 90.9583 172.619 90.8949 172.44 90.9528C172.44 90.9528 172.318 91.1898 172.376 91.369C172.434 91.5481 172.671 91.6694 172.492 91.7272L172.064 92.8544ZM123.072 137.348C123.604 137.769 124.558 137.659 125.518 136.954L125.409 136L125.351 135.821C125.293 135.642 125.235 135.463 124.877 135.578L124.697 135.636C124.396 135.931 124.153 136.405 123.853 136.7L123.072 137.348ZM125.854 139.219C125.674 139.277 125.611 139.693 125.784 140.23C125.958 140.768 127.207 140.958 127.091 140.6C126.975 140.241 126.033 139.161 125.854 139.219ZM364.331 61.0604C364.869 60.8868 364.274 60.8812 363.261 60.8123L362.307 60.9225L362.006 61.2174C362.064 61.3965 362.359 61.6969 362.359 61.6969C363.435 61.3497 363.013 61.8816 362.949 62.2978C363.007 62.4769 363.065 62.656 363.302 62.7773L363.481 62.7194C363.782 62.4245 363.794 61.234 364.331 61.0604ZM233.305 166.053C234.022 165.821 234.086 165.405 233.49 165.4C232.836 165.215 231.442 167.643 232.102 167.232L232.044 167.053C231.87 166.516 232.171 166.221 232.767 166.226L233.305 166.053ZM179.878 85.7829C179.82 85.6037 178.866 85.7139 177.848 86.2403L177.009 86.7088C176.83 86.7667 176.945 87.1249 177.003 87.3041C177.24 87.4253 177.599 87.3096 177.599 87.3096L177.9 87.0147C178.143 86.5407 178.438 86.8411 178.669 87.5577L179.565 87.2683C180.404 86.7998 179.872 86.3781 179.878 85.7829ZM152.518 178.282C152.813 178.582 153.351 178.409 153.652 178.114C153.952 177.819 154.201 176.75 153.964 176.628C153.42 177.397 152.645 177.45 151.934 177.086C151.396 177.259 152.044 178.039 152.518 178.282ZM358.017 48.857C358.433 48.9204 358.856 48.3886 359.099 47.9145L359.636 47.7409C360.174 47.5673 360.238 47.1512 360.001 47.0299L359.706 46.7295C359.11 46.724 358.572 46.8976 358.451 47.1346L358.509 47.3137C358.624 47.672 358.682 47.8512 358.144 48.0248C358.023 48.2618 358.138 48.62 358.017 48.857ZM366.468 37.6241C367.37 36.7395 367.735 36.0285 367.318 35.9651L367.139 36.0229C366.179 36.7284 366.404 38.0402 365.028 38.6823C365.028 38.6823 365.143 39.0406 365.201 39.2198C365.912 39.5836 366.103 38.3351 366.636 38.7568L366.994 38.641L366.468 37.6241ZM141.569 128.411C141.684 128.769 142.043 128.653 142.581 128.48C143.061 128.127 143.605 127.358 143.13 127.115C142.656 126.873 141.511 128.231 141.569 128.411ZM135.901 129.251C135.964 128.835 135.606 128.951 135.004 129.54L134.524 129.893L134.044 130.246C133.327 130.477 132.847 130.83 132.847 130.83C132.847 130.83 133.263 130.894 133.859 130.899C134.218 130.783 135.837 129.667 135.901 129.251ZM367.017 42.3918C366.901 42.0336 366.485 41.9702 366.126 42.0859L365.768 42.2017L365.588 42.2595C365.288 42.5544 365.166 42.7914 365.64 43.034C365.993 43.5135 367.133 42.7501 367.017 42.3918ZM172.745 102.326C173.283 102.153 173.167 101.795 172.693 101.552C172.04 101.367 170.663 102.01 170.721 102.189C170.779 102.368 172.207 102.5 172.745 102.326ZM393.045 18.7604C392.265 19.408 392.259 20.0033 393.149 20.3092L393.271 20.0722L393.751 19.7195C394.115 19.0084 393.942 18.471 393.705 18.3498L393.526 18.4076L393.045 18.7604ZM337.65 17.6514C337.829 17.5936 338.13 17.2987 338.194 16.8825C338.258 16.4664 338.385 15.6341 338.327 15.455C338.269 15.2758 337.789 15.6286 337.425 16.3396L336.945 16.6924L335.984 17.3979C336.459 17.6404 337.413 17.5302 337.65 17.6514ZM103.793 159.196C103.376 159.133 103.076 159.428 103.249 159.965L103.666 160.028L103.903 160.15C104.261 160.034 104.684 159.502 104.926 159.028L105.169 158.554C105.112 158.375 104.209 159.26 103.793 159.196ZM277.357 127.11C277.721 126.399 277.368 125.919 276.414 126.029L276.466 126.804L276.576 127.757C275.98 127.752 276.992 127.821 277.357 127.11ZM364.478 40.0465C364.241 39.9252 363.645 39.9197 363.223 40.4516L363.992 40.9945C364.466 41.2371 364.524 41.4162 365.062 41.2426C365.6 41.069 365.716 41.4272 365.953 41.5485C366.132 41.4906 366.254 41.2536 366.196 41.0745C366.08 40.7162 364.773 40.3469 364.478 40.0465ZM169.507 92.2949C169.744 92.4162 170.346 91.8264 170.589 91.3524L171.069 90.9996C171.549 90.6469 171.67 90.4099 171.433 90.2886C171.376 90.1095 170.838 90.2831 170.479 90.3988C169.941 90.5725 169.461 90.9252 169.218 91.3992C169.276 91.5783 169.392 91.9366 169.507 92.2949ZM285.402 120.755C285.582 120.697 286.183 120.107 286.906 119.28L287.271 118.569C287.271 118.569 287.155 118.211 286.918 118.09C286.739 118.148 286.38 118.263 286.438 118.443C286.432 119.038 286.247 119.691 285.35 119.98C285.229 120.217 285.287 120.396 285.402 120.755ZM392.627 37.0927C393.038 37.7514 393.928 38.0573 394.351 37.5254L394.652 37.2305C394.652 37.2305 394.478 36.6932 394.299 36.751L393.044 37.1561C392.755 36.2604 392.46 35.96 392.159 36.2549L392.217 36.434L392.627 37.0927ZM352.536 30.6486C352.837 30.3537 352.542 30.0533 352.004 30.2269C351.466 30.4006 350.743 31.2273 350.98 31.3486C351.217 31.4699 352.293 31.1226 352.536 30.6486ZM377.201 48.7968C376.721 49.1495 377.074 49.6291 377.727 49.8137L378.381 49.9984L378.56 49.9405C378.861 49.6456 379.162 49.3508 379.283 49.1138C379.347 48.6976 377.623 48.2649 377.201 48.7968ZM357.428 35.9924C357.122 36.8826 357.295 37.42 357.775 37.0672L358.134 36.9515L358.492 36.8358C358.851 36.72 359.094 36.246 358.741 35.7665L358.446 35.4661C358.388 35.2869 357.671 35.5184 357.671 35.5184L357.428 35.9924ZM145.895 185.364C145.317 183.573 145.138 183.631 143.582 184.331C143.57 185.521 144.825 185.116 145.895 185.364ZM296.062 115.138C295.825 115.017 295.287 115.191 295.108 115.249C294.807 115.543 295.576 116.086 295.455 116.323C295.333 116.56 295.212 116.797 295.692 116.445C295.813 116.208 296.299 115.26 296.062 115.138ZM283.476 122.761C283.655 122.703 283.777 122.466 283.777 122.466C283.54 122.345 283.482 122.166 283.841 122.05C284.02 121.992 284.737 121.761 284.679 121.581C284.621 121.402 284.147 121.16 283.846 121.455C283.488 121.57 282.528 122.276 282.585 122.455C282.227 122.571 283.117 122.877 283.476 122.761ZM290.833 119.793C290.718 119.435 290.417 119.73 289.937 120.082C289.514 120.614 288.907 121.799 289.503 121.805C290.098 121.81 290.469 120.504 290.527 120.683C290.706 120.625 290.949 120.151 290.833 119.793ZM392.957 39.9534C393.142 39.3002 393.148 38.7049 392.552 38.6994C392.135 38.636 390.88 39.0411 390.759 39.2781C390.637 39.5151 390.331 40.4053 390.869 40.2317L390.99 39.9947C391.291 39.6998 391.592 39.4049 392.008 39.4683L392.957 39.9534ZM173.834 88.5249C173.892 88.704 174.609 88.4725 175.447 88.004L175.812 87.293C175.933 87.056 175.818 86.6978 175.581 86.5765C175.164 86.5131 174.806 86.6288 174.8 87.2241C174.852 87.9985 174.435 87.9351 173.782 87.7505C173.602 87.8083 173.776 88.3457 173.834 88.5249ZM368.705 52.5281C368.346 52.6439 367.808 52.8175 367.924 53.1758C367.802 53.4128 368.091 54.3084 368.751 53.8978C369.173 53.3659 369.243 52.3545 368.705 52.5281ZM362.106 44.9658C361.985 45.2028 361.921 45.6189 362.395 45.8615C362.633 45.9827 363.465 46.1095 363.529 45.6934C363.413 45.3351 362.407 44.6709 362.106 44.9658ZM329.259 65.2597C329.375 65.618 329.791 65.6814 330.329 65.5078L330.867 65.3341C331.046 65.2763 332.249 64.0968 332.192 63.9176C332.134 63.7385 331.717 63.6751 331.717 63.6751C331.417 63.97 331.116 64.2648 330.994 64.5019L330.694 64.7967C330.514 64.8546 329.323 64.8436 329.259 65.2597ZM121.327 114.768C120.963 115.479 121.136 116.017 121.969 116.144L122.449 115.791L122.929 115.438C123.352 114.906 123.12 114.19 122.288 114.063L121.75 114.237L121.327 114.768Z" fill="#E41F24"/>
</svg>
