<svg width="9" height="16" viewBox="0 0 9 16" fill="none" xmlns="http://www.w3.org/2000/svg">
<path d="M8.40375 6.84603L2.01972 0.473285C1.91487 0.367567 1.79012 0.283656 1.65267 0.226394C1.51523 0.169131 1.3678 0.139648 1.2189 0.139648C1.07 0.139648 0.922577 0.169131 0.78513 0.226394C0.647682 0.283656 0.522933 0.367567 0.418078 0.473285C0.208002 0.684615 0.0900879 0.970488 0.0900879 1.26847C0.0900879 1.56645 0.208002 1.85232 0.418078 2.06365L6.00128 7.70325L0.418078 13.2864C0.208002 13.4978 0.0900879 13.7837 0.0900879 14.0816C0.0900879 14.3796 0.208002 14.6655 0.418078 14.8768C0.52254 14.9834 0.647113 15.0682 0.784579 15.1263C0.922044 15.1843 1.06967 15.2146 1.2189 15.2152C1.36813 15.2146 1.51576 15.1843 1.65322 15.1263C1.79069 15.0682 1.91526 14.9834 2.01972 14.8768L8.40375 8.50407C8.51824 8.39845 8.60961 8.27026 8.6721 8.12758C8.7346 7.9849 8.76686 7.83082 8.76686 7.67505C8.76686 7.51928 8.7346 7.3652 8.6721 7.22252C8.60961 7.07984 8.51824 6.95165 8.40375 6.84603Z" fill="white"/>
</svg>
